<svg xmlns:dc="http://purl.org/dc/elements/1.1/" xmlns:cc="http://creativecommons.org/ns#" xmlns:rdf="http://www.w3.org/1999/02/22-rdf-syntax-ns#" xmlns:svg="http://www.w3.org/2000/svg" xmlns="http://www.w3.org/2000/svg" xmlns:sodipodi="http://sodipodi.sourceforge.net/DTD/sodipodi-0.dtd" xmlns:inkscape="http://www.inkscape.org/namespaces/inkscape" width="500" height="125" version="1.1" inkscape:version="0.48.4 r9939">
  <title>Metal Gear Solid V - The Phantom Pain</title>
  <defs/>
  <metadata>
    <rdf:RDF>
      <cc:Work rdf:about="">
        <dc:format>image/svg+xml</dc:format>
        <dc:type rdf:resource="http://purl.org/dc/dcmitype/StillImage"/>
        <dc:title>Metal Gear Solid V - The Phantom Pain</dc:title>
      </cc:Work>
    </rdf:RDF>
  </metadata>
  <g inkscape:label="Layer 1" inkscape:groupmode="layer" transform="translate(457.51869,152.08421)">
    <g transform="translate(3.7304797e-6,-25)">
      <g transform="matrix(0.39227827,0,0,0.39227827,-265.54406,-27.90441)" style="fill:#000000">
        <path inkscape:connector-curvature="0" style="fill:#000000;fill-opacity:1" d="m 248.1 -129.9 c -5.1 -0 -8.5 0.5 -12.3 1.9 -7.8 2.9 -14.2 9.6 -16.8 17.8 -1.3 3.9 -1.5 5.9 -1.5 11 0 5.2 0.5 8.1 1.8 11.6 2.6 6.8 7.5 12.3 14 15.5 2.8 1.4 4.6 1.9 9.8 2.9 0.3 0.1 2.8 0.1 5.6 0 4.6 -0.1 5.1 -0.1 7.9 -0.9 8 -2.1 14.4 -7.3 18 -14.5 1.9 -3.8 2.8 -7.2 3.2 -12.3 0.9 -10 -2.3 -18.8 -9 -25.2 -5.6 -5.4 -12.1 -7.9 -20.7 -7.9 z m -0.3 8.7 c 1.9 -0 3.8 0.2 5.2 0.6 7.3 2 12.7 7.4 14.8 14.8 0.7 2.6 0.9 7.9 0.4 10.8 -1.6 8.6 -7.3 14.7 -15.5 16.5 -4.3 1 -8.1 0.8 -12.3 -0.5 -3.8 -1.2 -7 -3.4 -9.4 -6.5 -3.2 -4.1 -4.9 -11.2 -4.2 -17.1 1.2 -9.3 6.8 -15.9 15.5 -18 1.5 -0.4 3.5 -0.6 5.4 -0.6 z"/>
        <path inkscape:connector-curvature="0" style="fill:#000000" d="m -439 -96.4 0 -25.4 -9.3 0 -9.3 0 0 -4 0 -4 23.3 0 23.3 0 0 4 0 4 -9.3 0 -9.3 0 0 25.4 0 25.4 -4.8 0 -4.8 0 0 -25.4 z"/>
        <path style="fill:#000000" d="m -386 -100.4 0 -29.4 4.6 0 4.6 0 0.1 12.3 0.1 12.3 15 0 15 0 0.1 -12.3 0.1 -12.3 4.6 0 4.6 0 0 29.4 0 29.4 -4.6 0 -4.6 0 -0.1 -13 -0.1 -13 -15 0 -15 0 -0.1 13 -0.1 13 -4.6 0 -4.6 0 0 -29.4 z" inkscape:connector-curvature="0"/>
        <path style="fill:#000000" d="m -307.8 -100.4 0 -29.4 21.4 0 21.4 0 0 3.9 0 3.9 -16.7 0.1 -16.7 0.1 -0.1 8.5 -0.1 8.5 14.9 0 14.9 0 0 3.9 0 3.9 -14.8 0.1 -14.8 0.1 -0.1 9.1 -0.1 9.1 17.2 0 17.2 0 0 4 0 4 -21.8 0 -21.8 0 0 -29.4 z" inkscape:connector-curvature="0"/>
        <path style="fill:#000000" d="m -192.2 -129.9 0 29.4 0 29.4 4.6 0 4.6 0 0 -11 0 -9.6 9.1 -0.1 c 11.1 -0.1 13.6 -0.5 17.9 -2.7 5.8 -2.8 8.8 -9.9 8.8 -17.7 -0 -5.2 -1.3 -8.6 -4.5 -11.8 -3.4 -3.4 -8.2 -5.3 -14.9 -5.8 -1.8 -0.1 -8.3 -0.2 -14.5 -0.2 z m 9.2 7.8 7 0 c 9.4 0 12.3 0.4 15.2 2.1 3.2 1.9 4.9 6 4.2 10.3 -0.7 4.5 -3.1 8.3 -8.1 9.6 -1.8 0.5 -3 0.5 -10.1 0.7 l -8.1 0.1 0 -12.1 z" inkscape:connector-curvature="0"/>
        <path style="fill:#000000" d="m -115 -100.4 0 -29.4 4.6 0 4.6 0 0.1 12.3 0.1 12.3 15 0 15 0 0.1 -12.3 0.1 -12.3 4.6 0 4.6 0 0 29.4 0 29.4 -4.6 0 -4.6 0 -0.1 -13 -0.1 -13 -15 0 -15 0 -0.1 13 -0.1 13 -4.6 0 -4.6 0 0 -29.4 z" inkscape:connector-curvature="0"/>
        <path style="fill:#000000" d="m 156.1 -96.4 -0.1 -25.4 -9.2 -0.1 -9.2 -0.1 0 -4 0 -4 23.2 0 23.2 0 0 4 0 4 -9.2 0.1 -9.2 0.1 -0.1 25.4 -0.1 25.4 -4.6 0 -4.6 0 -0.1 -25.4 z" inkscape:connector-curvature="0"/>
        <path style="fill:#000000;fill-opacity:1" d="m 316.6 -129.9 8.9 0 19.2 29.5 19.2 -29.5 8.8 0.1 0.1 58.7 -8.9 0 -0.2 -42.6 -16.9 26.7 -4.1 0 -17.2 -26.7 -0 42.6 -8.7 0 z" inkscape:connector-curvature="0"/>
        <path style="fill:#000000" d="m 620.1 -129.9 9.3 0 0 58.9 -9.3 0 z" inkscape:connector-curvature="0"/>
        <path inkscape:connector-curvature="0" d="m 467.7 -129.9 0 29.4 0 29.4 4.6 0 4.6 0 0 -11 0 -9.6 9.1 -0.1 c 11.1 -0.1 13.6 -0.5 17.9 -2.7 5.8 -2.8 8.8 -9.9 8.8 -17.7 -0 -5.2 -1.3 -8.6 -4.5 -11.8 -3.4 -3.4 -8.2 -5.3 -14.9 -5.8 -1.8 -0.1 -8.3 -0.2 -14.5 -0.2 z m 9.2 7.8 7 0 c 9.4 0 12.3 0.4 15.2 2.1 3.2 1.9 4.9 6 4.2 10.3 -0.7 4.5 -3.1 8.3 -8.1 9.6 -1.8 0.5 -3 0.5 -10.1 0.7 l -8.1 0.1 0 -12.1 z" style="fill:#000000"/>
        <path inkscape:connector-curvature="0" d="m 564 -129.9 -8.7 0 -27.1 59.1 -0.2 0.6 10.5 0 6.7 -15.4 28.5 0.2 6.7 15 10.6 0.1 z m -4.4 12.3 9.8 21.7 c 0.6 1.2 1.1 2.3 1.1 2.5 l -21.9 0.1 z" style="fill:#000000"/>
        <path inkscape:connector-curvature="0" d="m 681.5 -128.5 8.9 -0.1 32.1 41.1 0.1 -42.4 10.1 1.3 0 58.9 -8.5 -0 -32.6 -42.2 -0.1 43 -10.1 -0.8 z" style="fill:#000000"/>
        <path style="fill:#000000" d="m 0.2 -129.9 -8.7 0 -27.1 59.1 -0.2 0.6 10.5 0 6.7 -15.4 28.5 0.2 6.7 15 10.6 0.1 z m -4.4 12.3 9.8 21.7 c 0.6 1.2 1.1 2.3 1.1 2.5 l -21.9 0.1 z" inkscape:connector-curvature="0"/>
        <path style="fill:#000000" d="m 51.3 -129.7 8.7 -0.1 32.4 41.3 0.1 -41.3 8.9 0 0 58.9 -8.3 -0 -32.7 -43 -0.1 43 -9.2 0 z" inkscape:connector-curvature="0"/>
      </g>
      <g transform="matrix(0.39227827,0,0,0.39227827,-265.54406,-27.90441)" style="fill:#000000">
        <path style="fill:#000000" d="m -162.5 -27.1 c -0.3 -0 -0.8 -0.2 -1.2 -0.3 -2.4 -0.8 -4 -2.7 -4.5 -5.3 -0.3 -1.5 -0 -3.6 0.5 -4.9 0.5 -1.1 1.4 -2.1 2.3 -2.8 1.2 -0.8 2.2 -1.1 3.9 -1.1 1.1 -0 1.3 -0 2 0.1 2 0.4 3.2 1.2 4.1 2.8 l 0.2 0.3 -1.4 0.8 c -0.8 0.4 -1.4 0.8 -1.5 0.8 -0 -0 -0.1 -0.1 -0.2 -0.3 -0.5 -0.7 -1.4 -1.3 -2.3 -1.5 -1 -0.2 -2.1 0.2 -2.9 1 -0.8 0.8 -1.1 1.8 -1.1 3.3 0 1.9 0.5 3.2 1.6 3.7 1 0.5 2.4 0.6 3.4 0 0.4 -0.2 1 -0.8 1.3 -1.3 0.1 -0.2 0.3 -0.4 0.3 -0.4 0 0 0.7 0.3 1.4 0.7 1.2 0.7 1.4 0.8 1.3 0.9 -0 0.3 -0.6 1.2 -1.2 1.8 -0.5 0.5 -0.7 0.7 -1.3 1 -1 0.5 -1.7 0.7 -3.2 0.7 -0.7 0 -1.4 -0 -1.7 -0 z" inkscape:connector-curvature="0"/>
        <path style="fill:#000000" d="m -90.1 -27.1 c -0.6 -0.1 -1.1 -0.2 -1.5 -0.3 -2.1 -0.7 -3.7 -2.3 -4.3 -4.6 -0.2 -0.9 -0.3 -2.7 -0.2 -3.7 0.5 -3.1 2.5 -5.3 5.5 -5.8 0.3 -0.1 1.1 -0.1 1.6 -0.1 2.4 0 4.2 0.7 5.3 2.1 0.4 0.5 0.7 1.1 0.7 1.2 -0.1 0.1 -2.7 1.5 -2.8 1.5 -0 0 -0.2 -0.2 -0.3 -0.4 -0.3 -0.5 -1 -1 -1.6 -1.2 -1.6 -0.6 -3.4 0.1 -4.1 1.7 -0.4 0.8 -0.5 1.3 -0.5 2.4 0 1.5 0.3 2.4 0.9 3.2 0.4 0.4 0.8 0.7 1.4 0.8 0.9 0.2 1.9 0.1 2.6 -0.3 0.4 -0.2 1 -0.8 1.4 -1.3 0.1 -0.2 0.3 -0.4 0.3 -0.4 0.1 0 2.8 1.5 2.8 1.5 0 0 -0.1 0.3 -0.3 0.6 -0.4 0.7 -1.3 1.7 -2 2.1 -0.6 0.3 -1.6 0.7 -2.4 0.8 -0.5 0.1 -2.1 0.1 -2.5 0 z" inkscape:connector-curvature="0"/>
        <path style="fill:#000000" d="m 34 -27.1 c -2.4 -0.3 -4 -1.4 -4.7 -3.1 l -0.1 -0.4 1.5 -0.6 c 0.8 -0.3 1.5 -0.6 1.5 -0.6 0 0 0.2 0.2 0.4 0.5 0.6 0.8 1.3 1.3 2.4 1.4 0.9 0.1 1.7 -0.1 2.1 -0.5 0.4 -0.4 0.4 -1.1 0.1 -1.6 -0.2 -0.3 -0.9 -0.6 -2.1 -1 -2.3 -0.6 -3 -0.9 -3.9 -1.5 -0.6 -0.4 -1.1 -1 -1.3 -1.7 -0.2 -0.7 -0.2 -1.9 0 -2.6 0.3 -1 1 -1.7 2.1 -2.3 0.9 -0.4 1.6 -0.6 2.8 -0.6 2.3 -0.1 3.9 0.5 5.1 1.7 0.5 0.5 0.9 1.2 0.8 1.3 -0.1 0.1 -2.7 1.3 -2.8 1.3 -0 -0 -0.1 -0.1 -0.2 -0.3 -0.3 -0.4 -1 -0.9 -1.6 -1.1 -0.7 -0.2 -1.7 -0.2 -2.1 0.1 -0.5 0.3 -0.7 0.9 -0.4 1.4 0.2 0.2 1.1 0.8 1.3 0.8 0.1 0 0.2 0 0.2 0.1 0 0 0.4 0.1 0.8 0.2 2.1 0.5 3.7 1.2 4.5 2 0.9 0.9 1.2 2.6 0.7 4 -0.5 1.4 -1.7 2.4 -3.4 2.8 -0.7 0.2 -2.5 0.3 -3.5 0.1 z" inkscape:connector-curvature="0"/>
        <path style="fill:#000000" d="m 108.3 -41.6 c -0.9 0 -1.8 0.1 -2.4 0.4 -2.6 0.9 -4.2 3 -4.6 5.8 -0.3 2.2 0.2 4.2 1.4 5.8 1 1.3 2.5 2.1 4.1 2.4 0.3 0 0.6 0.1 0.7 0.1 0.3 0.1 2.7 -0 3.1 -0.1 1.2 -0.3 2.3 -0.8 3.2 -1.6 1.1 -1 1.7 -2.2 2 -3.7 0.1 -0.6 0.1 -2.8 -0 -3.4 -0.3 -1.2 -0.6 -2 -1.1 -2.8 -0.9 -1.3 -2.2 -2.1 -3.9 -2.6 -0.7 -0.2 -1.6 -0.3 -2.6 -0.2 z m 0.1 3.1 c 0.4 -0 0.8 0 1.1 0.1 1.3 0.3 2.3 1.4 2.7 2.9 0.1 0.7 0.1 1.9 0 2.5 -0.3 1.5 -1.3 2.5 -2.6 2.9 -1.3 0.3 -2.4 -0 -3.3 -0.9 -0.7 -0.7 -1.1 -1.7 -1.2 -3 -0.1 -2.1 0.7 -3.7 2.3 -4.3 0.3 -0.1 0.7 -0.2 1.1 -0.2 z" inkscape:connector-curvature="0"/>
        <path style="fill:#000000" d="m 194.6 -27.1 c -3.2 -0.5 -5.4 -2.6 -5.9 -5.7 -0.1 -1 -0.1 -2.6 0.2 -3.5 0.6 -2.3 2.1 -3.9 4.3 -4.7 1.6 -0.6 4.5 -0.6 6.1 -0 1 0.3 1.8 1 2.5 2 l 0.4 0.6 -1.5 0.8 -1.5 0.8 -0.3 -0.3 c -0.8 -0.9 -2 -1.3 -3.3 -1.2 -1.5 0.2 -2.5 1.2 -2.9 2.8 -0.2 0.7 -0.2 2.2 0 2.9 0.4 1.9 1.6 2.8 3.6 2.8 0.9 -0 1.8 -0.2 2.6 -0.7 l 0.3 -0.2 0 -0.8 0 -0.8 -1.5 0 -1.5 0 0 -1.4 0 -1.4 3.2 0 3.2 0 0 4 0 4 -1.3 0 -1.3 0 0 -0.2 0 -0.2 -0.4 0.1 c -0.9 0.3 -1.7 0.4 -3.1 0.5 -0.7 0 -1.5 -0 -1.7 -0 z" inkscape:connector-curvature="0"/>
        <path style="fill:#000000" d="m 271.6 -41.5 c -1.2 0 -1.5 0 -2.1 0.2 -0.7 0.2 -1.9 0.7 -2.4 1 -0.9 0.6 -1.8 1.7 -2.2 2.7 -0.9 2 -0.9 4.8 0 6.7 1 2.1 2.8 3.5 5.2 3.8 0.6 0.1 2.9 0 3.5 -0.1 2.7 -0.6 4.5 -2.4 5.1 -5 0.2 -0.8 0.3 -2.6 0.1 -3.4 -0.2 -1.6 -0.8 -2.8 -1.9 -3.9 -0.8 -0.8 -1.3 -1.1 -2.3 -1.5 -1 -0.4 -1.6 -0.5 -3.1 -0.5 z m 0.1 3 c 1.3 0 2.5 0.7 3 1.8 0.7 1.3 0.7 3.6 0 4.9 -0.5 0.8 -1.3 1.4 -2.2 1.7 -1.2 0.3 -2.4 -0 -3.3 -0.9 -1 -1 -1.5 -3 -1 -4.7 0.4 -1.7 1.7 -2.7 3.4 -2.7 z" inkscape:connector-curvature="0"/>
        <path style="fill:#000000" d="m 451.4 -41.5 c -0.3 0 -0.6 0 -0.8 0.1 -2.7 0.4 -4.8 2 -5.6 4.5 -0.5 1.5 -0.6 3.8 -0 5.3 0.8 2.4 2.9 4.1 5.5 4.5 0.2 0 1 0.1 1.7 0 1.1 -0 1.4 -0.1 2 -0.2 1.2 -0.3 2.3 -0.9 3.1 -1.7 1.2 -1.2 1.8 -2.6 1.9 -4.4 0.2 -2.8 -0.6 -5 -2.4 -6.5 -0.8 -0.6 -1.6 -1 -2.8 -1.3 -0.5 -0.1 -1.7 -0.2 -2.6 -0.2 z m 0.5 3.1 c 1 0 1.8 0.3 2.5 1 0.5 0.5 0.8 1 1 1.8 0.2 0.6 0.2 2.2 0 2.9 -0.4 1.3 -1.1 2.2 -2.3 2.6 -0.2 0.1 -0.7 0.2 -1 0.2 -2.4 0.1 -4 -1.9 -3.7 -4.9 0.2 -2.2 1.6 -3.5 3.5 -3.5 z" inkscape:connector-curvature="0"/>
        <path style="fill:#000000" d="m 507.5 -27.2 c -1.6 -0.2 -2.8 -0.7 -3.6 -1.5 -0.5 -0.5 -0.9 -1.1 -1.1 -1.7 l -0.1 -0.3 1.4 -0.6 c 0.8 -0.3 1.5 -0.6 1.5 -0.6 0 0 0.2 0.2 0.4 0.5 0.6 0.9 1.4 1.3 2.5 1.4 1.1 0.2 2 -0.2 2.3 -0.7 0.1 -0.1 0.1 -0.4 0.1 -0.6 0 -0.8 -0.6 -1.2 -2.4 -1.7 -2.3 -0.6 -3 -0.9 -3.8 -1.5 -1 -0.7 -1.5 -1.6 -1.5 -3 0 -1.2 0.3 -2 1.1 -2.7 0.9 -0.9 2.2 -1.4 4 -1.5 2.3 -0.1 4 0.4 5.1 1.7 0.5 0.5 0.9 1.2 0.8 1.3 -0 0 -0.7 0.3 -1.4 0.7 l -1.3 0.6 -0.4 -0.4 c -0.7 -0.8 -1.6 -1.2 -2.5 -1.2 -0.7 0 -1 0.1 -1.4 0.4 -0.2 0.2 -0.3 0.3 -0.3 0.6 -0.1 0.5 0.2 0.8 0.8 1.1 0.3 0.1 0.6 0.3 0.7 0.3 0.1 0 0.2 0 0.2 0.1 0 0 0.4 0.1 0.8 0.2 2.3 0.5 3.9 1.3 4.6 2.2 1 1.2 1 3.3 0.1 4.7 -0.5 0.8 -1.7 1.6 -2.8 1.9 -1 0.3 -2.4 0.3 -3.7 0.2 z" inkscape:connector-curvature="0"/>
        <path style="fill:#000000" d="m -216.5 -32.5 0 -5.5 -2.2 0 -2.2 0 0 -1.6 0 -1.6 6.2 0 6.2 0 0 1.6 0 1.6 -2.2 0 -2.2 0 0 5.5 0 5.5 -1.9 0 -1.9 0 0 -5.5 z" inkscape:connector-curvature="0"/>
        <path style="fill:#000000" d="m -191.8 -41.2 -0.5 1.3 c -0.3 0.7 -1.3 3.3 -2.2 5.7 -1.7 4.2 -2.3 5.7 -2.7 6.6 -0.1 0.2 -0.2 0.4 -0.2 0.5 0 0 0.9 0 1.9 0 1.1 0 1.9 -0 1.9 -0.1 0 -0 0.2 -0.6 0.5 -1.3 l 0.4 -1.3 2.7 0 2.7 0 0.5 1.3 0.5 1.3 2 0 2 0 -2.8 -7 -2.8 -7 -1.9 -0 -1.9 -0 z m 1.8 3.9 c 0.1 -0 0.2 0.3 0.7 1.9 0.4 1.1 0.8 2.2 0.9 2.4 l 0.2 0.4 -1.7 0 -1.7 0 0.6 -1.6 c 0.6 -1.8 1 -2.8 1.1 -3 0 -0 0 -0 0 -0 z" inkscape:connector-curvature="0"/>
        <path style="fill:#000000" d="m -137.7 -32.5 0 -5.5 -2.2 0 -2.2 0 0 -1.6 0 -1.6 6.2 0 6.2 0 0 1.6 0 1.6 -2.2 0 -2.2 0 0 5.5 0 5.5 -1.9 0 -1.9 0 0 -5.5 z" inkscape:connector-curvature="0"/>
        <path style="fill:#000000" d="m -115.5 -34.1 0 -7 1.9 0 1.9 0 0 7 0 7 -1.9 0 -1.9 0 0 -7 z" inkscape:connector-curvature="0"/>
        <path style="fill:#000000" d="m -61.9 -41.2 c -1.8 0 -1.9 0 -2 0.1 -0 0.1 -0.7 1.7 -1.4 3.6 -2.8 7.1 -3.5 8.9 -4 9.9 l -0.2 0.4 1.9 0 1.9 0 0.3 -0.9 c 0.2 -0.5 0.4 -1.1 0.5 -1.3 l 0.2 -0.5 2.7 0 2.7 0 0.1 0.3 c 0.1 0.2 0.3 0.8 0.5 1.3 l 0.4 1 2 0 c 1.6 0 1.9 0 1.9 -0.1 -0 -0.1 -1.3 -3.2 -2.8 -7.1 l -2.8 -7 -1.9 0 z m -0 3.7 0.6 1.9 c 0.4 1.1 0.8 2.1 0.9 2.4 0.1 0.2 0.2 0.4 0.2 0.5 0 0 -0.8 0 -1.7 0 l -1.7 0 0.1 -0.2 c 0.1 -0.4 1.4 -4.1 1.5 -4.4 l 0.1 -0.3 z" inkscape:connector-curvature="0"/>
        <path style="fill:#000000" d="m -39.9 -34.1 0 -7 1.9 0 1.9 0 0 5.5 0 5.5 3.4 0 3.4 0 0 1.6 0 1.6 -5.3 0 -5.3 0 0 -7 z" inkscape:connector-curvature="0"/>
        <path style="fill:#000000" d="m 4.3 -34.1 0 -7 5.6 0 5.6 0 0 1.4 0 1.4 -3.7 0 -3.7 0 0 1.3 0 1.3 3.3 0 3.3 0 0 1.4 0 1.4 -3.4 0 -3.4 0 0 1.5 0 1.5 3.8 0 3.8 0 0 1.5 0 1.5 -5.7 0 -5.7 0 0 -7 z" inkscape:connector-curvature="0"/>
        <path style="fill:#000000" d="m 55.4 -41.1 0 7 0 7 1.9 0 1.9 0 0 -2.3 0 -2.3 1.8 -0 c 1.5 -0 1.9 -0.1 2.4 -0.2 1.4 -0.4 2.6 -1.3 3.1 -2.4 0.4 -0.8 0.5 -1.5 0.5 -2.6 -0.1 -2.2 -1.1 -3.4 -3 -4 -0.5 -0.2 -0.8 -0.2 -4.5 -0.2 l -3.9 -0 z m 3.7 2.7 1.3 0 c 1.5 0.1 1.9 0.2 2.4 0.6 0.4 0.3 0.5 0.7 0.5 1.3 0 0.9 -0.4 1.4 -1.2 1.7 -0.4 0.1 -0.7 0.1 -1.7 0.1 l -1.2 0 0 -1.9 0 -1.9 z" inkscape:connector-curvature="0"/>
        <path style="fill:#000000" d="m 81.7 -34.1 0 -7 1.9 0 1.9 0 0 7 0 7 -1.9 0 -1.9 0 0 -7 z" inkscape:connector-curvature="0"/>
        <path style="fill:#000000" d="m 131.7 -34.1 0 -7 1.7 0 1.7 0 0.2 0.2 c 0.1 0.1 1 1.4 2.1 2.9 1 1.5 2.3 3.2 2.8 3.9 l 0.9 1.2 0 -4.1 0 -4.1 1.8 0 1.8 0 0 7 0 7 -1.7 -0 -1.7 -0 -1.9 -2.6 c -1 -1.4 -2.4 -3.3 -3 -4.1 l -1.1 -1.6 -0 4.1 -0 4.1 -1.8 0 -1.8 0 0 -7 z" inkscape:connector-curvature="0"/>
        <path style="fill:#000000" d="m 165.3 -41.2 -0.7 1.8 c -2.6 6.7 -3.9 9.9 -4.4 11 -0.3 0.7 -0.5 1.2 -0.5 1.2 0 0 0.9 0 1.9 0 l 1.9 -0 0.5 -1.3 0.5 -1.3 2.8 -0 c 1.7 -0 2.8 0 2.8 0.1 0 0 0.2 0.6 0.4 1.3 l 0.5 1.3 1.9 0 c 1.1 0 1.9 -0 1.9 -0.1 0 -0 -1.3 -3.2 -2.8 -7 l -2.8 -7 -1.9 0 -1.9 0 z m 1.9 3.8 c 0 -0 0 0 0 0 0 0.1 0.3 0.9 0.7 1.9 0.3 1 0.7 2 0.8 2.3 l 0.2 0.5 -1.7 0 -1.7 0 0.7 -2 c 0.7 -2 0.9 -2.7 1 -2.8 z" inkscape:connector-curvature="0"/>
        <path style="fill:#000000" d="m 218.4 -34.1 0 -7 5.6 0 5.6 0 0 1.4 0 1.4 -3.7 0 -3.7 0 0 1.3 0 1.3 3.3 0 3.3 0 0 1.4 0 1.4 -3.4 0 -3.4 0 0 1.5 0 1.5 3.8 0 3.8 0 0 1.5 0 1.5 -5.7 0 -5.7 0 0 -7 z" inkscape:connector-curvature="0"/>
        <path style="fill:#000000" d="m 294.4 -41.1 0 7 0 7 1.9 0 1.9 0 0 -2.4 0 -2.3 1.4 0 c 2.1 0 2.9 -0.1 4 -0.7 1.9 -1 2.7 -3 2.3 -5.3 -0.3 -1.6 -1.3 -2.7 -2.9 -3.1 -0.6 -0.2 -0.8 -0.2 -4.5 -0.2 l -3.9 -0 z m 3.7 2.7 1.2 0 c 1.5 0.1 1.9 0.2 2.4 0.6 0.3 0.3 0.5 0.7 0.5 1.3 -0 0.7 -0.4 1.2 -1.1 1.6 -0.3 0.2 -0.5 0.2 -1.7 0.2 l -1.3 0 0 -1.9 0 -1.9 z" inkscape:connector-curvature="0"/>
        <path style="fill:#000000" d="m 320 -34.1 0 -7 5.6 0 5.6 0 0 1.4 0 1.4 -3.7 0 -3.7 0 0 1.3 0 1.3 3.3 0 3.3 0 0 1.4 0 1.4 -3.4 0 -3.4 0 0 1.5 0 1.5 3.8 0 3.8 0 0 1.5 0 1.5 -5.7 0 -5.7 0 0 -7 z" inkscape:connector-curvature="0"/>
        <path style="fill:#000000" d="m 346.5 -41.1 0 7 0 7 1.9 0 1.9 0 0 -2.5 0 -2.6 1 0 1 0 1.5 2.6 1.5 2.5 2.1 0 c 1.2 0 2.1 -0 2.1 -0 0 -0 -0.8 -1.2 -1.9 -2.7 -1 -1.5 -1.9 -2.7 -1.9 -2.8 -0 -0 0.1 -0.1 0.3 -0.2 1.4 -0.5 2.3 -1.4 2.6 -2.8 0.1 -0.6 0.1 -1.9 0 -2.5 -0.4 -1.4 -1.5 -2.4 -3.1 -2.8 -0.6 -0.2 -0.7 -0.2 -4.8 -0.2 l -4.2 -0 z m 3.7 2.8 1.2 0 c 2.3 0 2.9 0.2 3.3 1.1 0.2 0.3 0.2 1 0.1 1.3 -0.2 0.5 -0.7 0.9 -1.5 1 -0.3 0.1 -1 0.1 -1.8 0.1 l -1.3 0 0 -1.8 0 -1.7 z" inkscape:connector-curvature="0"/>
        <path style="fill:#000000" d="m 377.8 -41.2 -0.5 1.2 c -3.2 8.3 -4.4 11.3 -4.7 11.8 -0.2 0.3 -0.3 0.7 -0.4 0.9 l -0.1 0.2 1.9 0 1.9 0 0.5 -1.3 0.5 -1.3 2.7 0 2.7 0 0.2 0.6 c 0.1 0.3 0.3 0.9 0.5 1.3 l 0.3 0.7 2 0 c 1.6 0 1.9 0 1.9 -0.1 -0 -0.1 -1.3 -3.2 -2.8 -7.1 l -2.8 -7 -1.9 0 -1.9 0 z m 1.9 3.7 0.5 1.5 c 0.4 1.3 0.9 2.6 1.1 3.2 0 0.1 -0.1 0.1 -1.6 0.1 -1 0 -1.7 -0 -1.7 -0.1 0 -0.1 1.3 -3.9 1.5 -4.3 l 0.2 -0.4 z" inkscape:connector-curvature="0"/>
        <path style="fill:#000000" d="m 403 -32.5 0 -5.5 -2.2 0 -2.2 0 0 -1.6 0 -1.6 6.2 0 6.2 0 0 1.6 0 1.6 -2.2 0 -2.2 0 0 5.5 0 5.5 -1.9 0 -1.9 0 0 -5.5 z" inkscape:connector-curvature="0"/>
        <path style="fill:#000000" d="m 425.4 -34.1 0 -7 1.9 0 1.9 0 0 7 0 7 -1.9 0 -1.9 0 0 -7 z" inkscape:connector-curvature="0"/>
        <path style="fill:#000000" d="m 475 -34.1 0 -7 1.7 0 1.7 0 0.4 0.5 c 0.2 0.3 1.2 1.7 2.2 3 1 1.4 2.1 3 2.5 3.5 l 0.8 1 0 -4.1 0 -4.1 1.8 0 1.8 0 0 7 0 7 -1.7 0 -1.7 0 -2.2 -3.1 c -1.2 -1.7 -2.6 -3.5 -3 -4.1 l -0.7 -1 -0 4.1 -0 4.1 -1.8 0 -1.8 0 0 -7 z" inkscape:connector-curvature="0"/>
      </g>
      <g transform="matrix(0.39227827,0,0,0.39227827,-265.54406,-27.90441)">
        <path style="fill:#ff232f;fill-opacity:1" d="m 51 -108.7 c -9.4 -1.1 -15.9 -5.7 -19.6 -13.1 -3 -6 -3.6 -13.1 -1.6 -20.1 1.8 -6.3 5.6 -11.2 11.3 -14.5 4.7 -2.7 10.9 -4 16.8 -3.3 6 0.6 9 2 13.1 6 1.8 1.7 2.4 2.3 2.2 2.5 l -5.2 5.9 -1.8 -1.5 c -6.3 -5.7 -16.2 -5.9 -21.7 -1.4 -5.1 4.8 -7.2 9.6 -6.1 16.7 1 7.1 4.4 10.7 9.7 13.2 2.2 1 4.2 1.5 6.8 1.5 4.8 0 8.4 -1.2 10.2 -2.5 l 1.4 -1.1 0 -9 -14.6 0 0 -8.3 22.6 0 0 28.4 -7.8 0 -0.2 -2.7 c -1.9 1.1 -4.2 2.5 -7 3 -1.7 0.3 -6.9 0.6 -8.3 0.4 z" inkscape:connector-curvature="0"/>
        <path style="fill:#ff232f;fill-opacity:1" d="m 370.6 -109.1 c -6.1 -1 -11.8 -4.8 -15.2 -8.4 l -0.8 -1 5.2 -6.2 1.5 1.3 c 2.8 2.4 5.8 4.6 9.1 5.6 1.6 0.5 2.2 0.6 4.9 0.6 3.6 0 4.4 -0.3 6.7 -1.9 3.7 -2.8 2.5 -6 0.7 -7.9 -1.6 -1.8 -2.5 -1.7 -9.1 -3.4 -7.5 -1.9 -11 -3.9 -13.5 -6.4 -2.3 -2.3 -3.1 -5.1 -3.1 -8.8 -0 -4.3 1.7 -8.2 5.1 -10.8 3.2 -2.4 6.2 -3.4 11 -3.5 7.2 -0.2 13.6 2 18.1 6.2 l 1.2 1.1 -4.9 6.7 -1.6 -1.3 c -3.4 -2.6 -7.9 -4.3 -11.7 -4.3 -3.1 0 -4 0.5 -6.2 2.3 -2.6 2.1 -2.2 4.4 -0.6 6.9 1.7 1.8 3.7 2.1 11.1 4.1 10 2.6 13.5 5.9 14.8 11.2 0.4 1.5 0.2 5.2 -0.2 6.9 -1.2 5.1 -5.2 8.9 -11.1 10.4 -1.7 0.4 -2.6 0.5 -5.7 0.6 -2.4 0 -4.3 -0 -5.4 -0.2 z" inkscape:connector-curvature="0"/>
        <path style="fill:#ff232f;fill-opacity:1" d="m -270.3 -134.7 0 -25.2 37.3 0 0 9 -27.8 0 0 11.7 24.5 0 0 8.3 -24.5 0 0 13 28.3 0.1 0.1 8.4 -37.9 0 0 -25.2 z" inkscape:connector-curvature="0"/>
        <path style="fill:#ff232f;fill-opacity:1" d="m -192.2 -151.1 -15.7 0 0 -8.8 42.1 0 0 8.8 -17.1 0 0 44.3 -9.3 0 z" inkscape:connector-curvature="0"/>
        <path style="fill:#ff232f;fill-opacity:1" d="m -60.4 -159.9 9.1 0.1 0.1 41.7 26.5 0 0 8.6 -35.7 0 z" inkscape:connector-curvature="0"/>
        <path style="fill:#ff232f;fill-opacity:1" d="m 251.9 -159.9 c 0 16.8 0 33.7 0 50.5 3.2 0 6.3 0 9.5 0 0 -6.1 0 -12.2 0 -18.4 l 10.2 0.1 13.7 18.3 11.1 -0.1 -14.8 -19.1 c 7 -2.7 11.6 -9.4 10.7 -16.2 -0 -6.2 -2.6 -10.6 -7.9 -13 -3.8 -1.7 -6.8 -2 -21.6 -2 l -10.9 0 z m 9.5 8.8 6.6 0.1 c 6.8 0.1 8.6 0.2 9.8 0.5 7.7 0 7.2 14.2 0.4 14.2 -6.7 0.7 -9.1 0.4 -16.8 0.6 0 -5.8 0 -9.5 0 -15.3 z" inkscape:connector-curvature="0"/>
        <path style="fill:#ff232f;fill-opacity:1" d="m 493 -159.9 8.7 0 0 41 26.1 0 0 8.7 -34.9 0 z" inkscape:connector-curvature="0"/>
        <path style="fill:#ff232f;fill-opacity:1" d="m 563.8 -135.1 0 -24.9 4.4 0 4.4 0 0 24.9 0 24.9 -4.4 0 -4.4 0 0 -24.9 z" inkscape:connector-curvature="0"/>
        <path style="fill:#ff232f;fill-opacity:1" d="m 628.6 -159.9 -8.5 0.1 -0 25.1 -0.1 25.1 11.2 -0.1 c 9.1 -0.1 11.5 -0.2 12.9 -0.5 5.3 -1.1 10.5 -3.2 14 -6.9 1.9 -2 2.9 -3.4 4.1 -6 2.4 -5.2 3 -13 1.3 -19.5 -2.1 -8.6 -9.8 -14.7 -18.4 -16.6 -3 -0.7 -7.4 -0.8 -16.5 -0.8 z m 1.1 8.9 6.2 0.1 c 7.2 0.1 14.7 2.3 18.1 8.7 1.1 2.1 1.6 4.2 1.4 7.6 -0.1 3.4 -0.6 5 -1.9 7.6 -5.6 8.7 -9.7 8.8 -18.2 8.9 l -5.7 0 0 -32.8 z" inkscape:connector-curvature="0"/>
        <path inkscape:connector-curvature="0" d="m -346.6 -159.9 9.6 0 14.5 23.9 14.7 -23.9 9.1 0.1 0.1 50.2 -9.2 0 -0.2 -32.4 -12.8 20.9 -3.5 0 -12.9 -20.9 -0 32.4 -9.5 0 z" style="fill:#ff232f;fill-opacity:1"/>
        <path inkscape:connector-curvature="0" style="fill:#ff232f;fill-opacity:1" d="m -117.9 -159.9 -22.6 50.4 -0.2 0.5 9.4 0 5.6 -12.2 22.6 0 5.4 12.1 9.5 0 -22.4 -50.8 -7.2 0 z m 3.6 13.7 7.5 16.7 -15.1 0 7.6 -16.7 z"/>
        <path style="fill:#ff232f;fill-opacity:1" d="m 438.7 -159.9 c -3.5 0.1 -6 0.6 -8.7 1.6 -6.6 2.5 -11.9 8.1 -14.1 15 -1.1 3.3 -1.3 5 -1.3 9.3 0 4.4 0.4 6.8 1.5 9.8 2.2 5.8 6.3 10.4 11.7 13.2 2.4 1.2 3.8 1.6 8.2 2.4 0.3 0.1 2.4 0 4.7 0 3.8 -0.1 4.3 -0.1 6.6 -0.7 6.7 -1.8 12.1 -6.1 15.1 -12.2 1.6 -3.2 2.3 -6.1 2.7 -10.4 0.7 -8.5 -1.9 -15.9 -7.5 -21.3 -4.7 -4.6 -10.1 -6.6 -17.3 -6.7 -0.5 -0 -1.1 -0 -1.6 0 z m 1.3 8.6 c 1.5 -0 3 0.1 4.1 0.4 5.7 1.5 9.9 5.9 11.6 11.7 0.6 2 0.7 6.2 0.3 8.5 -1.3 6.8 -5.7 11.5 -12.1 13 -3.4 0.8 -6.3 0.6 -9.6 -0.4 -3 -0.9 -5.4 -2.6 -7.3 -5.1 -2.5 -3.2 -3.8 -8.8 -3.2 -13.4 0.9 -7.3 5.3 -12.5 12.1 -14.2 1.2 -0.3 2.7 -0.5 4.2 -0.5 z" inkscape:connector-curvature="0"/>
        <path style="fill:#ff232f;fill-opacity:1" d="m 722.5 -110.7 -20.5 -48.8 9.7 -0.4 16.2 37.8 15.3 -37.7 10.2 -0 -20.7 49.2 z" inkscape:connector-curvature="0"/>
        <path inkscape:connector-curvature="0" d="m 111.1 -134.7 0 -25.2 37.3 0 0 9 -27.8 0 0 11.7 24.5 0 0 8.3 -24.5 0 0 13 28.3 0.1 0.1 8.4 -37.9 0 0 -25.2 z" style="fill:#ff232f;fill-opacity:1"/>
        <path d="m 198.5 -159.9 -22.6 50.4 -0.2 0.5 9.4 0 5.6 -12.2 22.6 0 5.4 12.1 9.5 0 -22.4 -50.8 -7.2 0 z m 3.6 13.7 7.5 16.7 -15.1 0 7.6 -16.7 z" style="fill:#ff232f;fill-opacity:1" inkscape:connector-curvature="0"/>
      </g>
    </g>
  </g>
</svg>
