<?xml version="1.0" encoding="UTF-8"?>
<svg xmlns="http://www.w3.org/2000/svg" xmlns:xlink="http://www.w3.org/1999/xlink" width="595pt" height="753pt" viewBox="0 0 595 753" version="1.1">
<g id="surface1">
<path style=" stroke:none;fill-rule:evenodd;fill:rgb(0%,0%,0%);fill-opacity:1;" d="M 269.167969 512.035156 L 270.914063 512.1875 L 272.304688 515.425781 C 273.949219 512.816406 273.207031 467.414063 273.203125 460.800781 C 273.199219 451.519531 273.277344 442.242188 273.277344 432.960938 C 273.277344 426.421875 274.359375 424.128906 271.1875 421.320313 C 266.535156 417.199219 261.730469 416.289063 254.867188 409.808594 C 247.851563 403.183594 239.363281 394.417969 239.75 383.011719 C 239.878906 379.222656 240.988281 375.023438 241.617188 371.253906 L 247.617188 335.511719 C 263.429688 342.121094 266.179688 351.992188 273.773438 366.210938 C 275.003906 361.804688 269.289063 349.574219 267.0625 344.902344 C 269.40625 346.367188 269.449219 347.898438 270.816406 350.113281 C 274.027344 353.480469 274.828125 350.757813 275.832031 356.566406 C 276.066406 357.914063 276.417969 358.648438 277.222656 359.757813 C 279.226563 356.171875 275.863281 345.71875 282.09375 344.972656 C 286.910156 344.394531 291.476563 349.347656 294.257813 352.289063 C 297.4375 355.65625 300.699219 358.53125 303.332031 362.664063 C 311.183594 374.988281 316.5 390.210938 318.890625 405.457031 C 321.199219 420.199219 319.28125 424.792969 312.925781 435.972656 C 310.535156 440.179688 308.464844 444.351563 306.035156 448.507813 C 297.839844 462.542969 288.292969 473.199219 295.910156 491.171875 C 297.914063 495.902344 299.964844 499.589844 301.578125 504.925781 C 303.773438 512.175781 301.953125 515.089844 298.734375 519.882813 L 285.25 545.636719 L 288.398438 546.726563 L 290.609375 552.078125 C 289.363281 552.503906 287.835938 553.347656 289.164063 555.316406 C 290.328125 557.050781 290.910156 555.4375 291.722656 558.519531 C 292.8125 562.625 294.273438 563.296875 295.707031 566.492188 C 299.09375 574.03125 301.925781 582.410156 305.871094 591.234375 C 309.488281 599.328125 312.449219 607.511719 317.222656 614.996094 C 319.441406 615.011719 320.054688 614.203125 320.8125 612.210938 C 321.492188 610.417969 322.265625 609.125 322.683594 607.4375 C 323.757813 603.082031 322.582031 600.144531 324.644531 596.160156 C 325.835938 593.863281 326.828125 588.269531 326.128906 585.578125 C 325.46875 583.046875 325.574219 581.847656 326.554688 579.929688 C 327.175781 576.722656 323.820313 574.800781 330.027344 570.167969 C 333.34375 567.695313 333.777344 568.949219 337.691406 565.449219 C 341.945313 561.640625 343.644531 561.289063 342.761719 557.839844 C 334.136719 554.320313 321.527344 571.894531 308.558594 566.921875 C 304.917969 565.527344 303.21875 562.328125 301.316406 558.683594 C 295.894531 548.304688 300.324219 543.457031 304.886719 536.195313 L 316.675781 516.242188 C 314.144531 517.316406 312.011719 520.976563 310.75 523.050781 C 308.683594 526.441406 297.925781 540.472656 294.925781 544.238281 L 291.605469 542.253906 C 291.390625 540.355469 293.257813 539.355469 294.097656 537.769531 C 296.175781 533.835938 300.953125 528.417969 304.070313 523.882813 C 306.101563 520.925781 314.582031 512.199219 310.492188 508.84375 L 305.96875 506.363281 C 305.402344 504.273438 303.722656 501.636719 302.71875 499.375 C 301.699219 497.066406 300.546875 495.003906 299.394531 492.558594 L 294.964844 477.429688 L 301.066406 477.109375 C 301.996094 478.324219 302.003906 480.390625 302.433594 481.996094 C 302.878906 483.636719 303.535156 484.972656 304.0625 486.546875 C 306.210938 493 308.703125 499.105469 310.632813 505.589844 C 312.15625 510.691406 311.550781 509.496094 316.699219 511.816406 C 317.761719 511.023438 317.457031 511.5 317.707031 509.789063 C 317.835938 508.894531 317.851563 507.234375 317.832031 506.304688 C 317.78125 504.1875 317.359375 502.230469 316.953125 500.191406 C 316.242188 496.625 314.988281 492.539063 314.074219 488.933594 C 311.414063 478.433594 313.339844 474.628906 317.660156 466.777344 C 324.097656 455.089844 332.882813 444.867188 339.617188 433.058594 C 344.140625 425.125 344.585938 420.6875 344.589844 409.980469 C 344.59375 391.914063 339.597656 372.617188 344.027344 358.355469 C 345.632813 353.175781 348.34375 348.277344 352.734375 345.847656 L 357.558594 343.796875 L 359.859375 357.953125 C 360.199219 357.636719 360.109375 357.777344 360.511719 357.191406 C 361.449219 355.828125 361.914063 355.625 363.394531 354.800781 L 361.605469 362.261719 C 367.898438 363.949219 369.1875 346.851563 381.480469 339.679688 L 390.792969 335.289063 C 394.210938 340.375 392.421875 354.578125 393.65625 361.589844 C 395 369.199219 397.625 379 397.851563 386.554688 C 398.023438 392.316406 397.371094 394.4375 394.652344 397.929688 C 392.308594 400.949219 390.199219 402.78125 387.828125 405.695313 C 380.589844 414.585938 384.121094 414.058594 372.414063 419.875 C 362.597656 424.753906 363.421875 429.277344 363.660156 440.472656 C 363.765625 445.441406 363.046875 466.425781 365.105469 468.78125 C 365.859375 469.644531 366.21875 469.066406 367.03125 470.398438 C 367.75 471.578125 367.019531 474.207031 374.890625 473.71875 C 379.183594 473.453125 382.921875 472.195313 386.03125 470.179688 C 390.785156 467.09375 394.894531 459.539063 398.082031 452.636719 C 399.621094 449.296875 401.601563 446.597656 403.199219 443.164063 C 407.921875 433.007813 412.09375 423.085938 416.335938 412.550781 C 421.992188 398.496094 429.171875 386.347656 435.113281 372.550781 C 438.058594 365.722656 441.328125 359.285156 444.207031 352.476563 C 449.988281 338.8125 456.378906 325.503906 462.386719 311.886719 C 463.847656 308.570313 465.570313 305.285156 466.878906 301.796875 C 468.242188 298.179688 469.722656 294.757813 471.476563 291.359375 C 474.785156 284.941406 478 278.410156 480.765625 271.484375 C 484.566406 261.964844 483.730469 257.054688 479.714844 248.160156 C 476.683594 241.460938 473.777344 234.789063 470.398438 228.308594 C 466.9375 221.671875 463.578125 216.21875 460.832031 208.261719 C 456.453125 195.558594 448.695313 179.679688 442.5625 167.746094 C 438.976563 160.765625 435.964844 156.074219 433.105469 148.050781 C 431.160156 142.605469 417.992188 113.492188 415.027344 107.335938 C 411.746094 100.523438 408.867188 94.234375 405.824219 87.390625 C 399.8125 73.855469 392.738281 61.191406 387.0625 47.386719 C 384.171875 40.347656 381.195313 33.894531 377.980469 27.289063 C 375.328125 21.832031 370.996094 10.757813 366.527344 9.117188 C 360.128906 6.769531 358.804688 23.085938 357.300781 28.289063 C 356.691406 30.390625 354.511719 40.136719 360.078125 37.777344 C 361.546875 37.15625 361.6875 35.207031 365.273438 36.015625 L 368.96875 40.285156 C 362.832031 38.476563 367.828125 38.171875 358.929688 38.578125 C 358.84375 42.636719 362.257813 42.910156 365.011719 44.675781 C 367.28125 46.128906 368.230469 49.734375 369.191406 52.867188 C 371.109375 59.128906 372.699219 65.839844 374.347656 72.484375 C 377.59375 85.585938 381.210938 98.476563 384.1875 111.707031 C 387.121094 124.742188 390.835938 137.753906 394.082031 150.8125 C 395.8125 157.773438 398.054688 164.335938 395.859375 172.003906 C 394.609375 176.359375 388.042969 181.738281 385.191406 186.085938 C 378.535156 196.230469 390.453125 194.746094 396.59375 194.398438 C 398.4375 194.296875 400.242188 194.648438 401.941406 195.113281 C 404.300781 195.757813 404.457031 196 405.230469 198.007813 C 411.046875 213.085938 414.425781 230.601563 418.308594 246.375 C 420.492188 255.242188 418.574219 259.945313 413.277344 264.097656 C 407.996094 268.238281 403.320313 270.371094 394.308594 269.949219 C 387.257813 269.621094 378.726563 267.351563 380.226563 259.367188 C 380.929688 255.621094 387.367188 247.839844 389.789063 244.378906 C 383.882813 242.390625 381.316406 241.6875 375.644531 244.578125 C 371.5625 246.660156 368.542969 249.609375 364.175781 251.25 C 352.792969 255.53125 355.328125 248.210938 345.484375 259.519531 L 340.976563 264 C 337.050781 260.253906 334.539063 250.957031 328.246094 243.628906 C 327.066406 242.253906 325.820313 240.714844 324.621094 239.292969 C 321.980469 236.167969 314.578125 229.222656 312.445313 226.28125 C 310.359375 223.402344 308.707031 217.597656 309.78125 213.136719 C 312.496094 201.871094 339.625 192.652344 348.601563 185.742188 C 365.933594 172.398438 367.238281 142.789063 350.277344 128.792969 C 345.863281 125.152344 334.609375 120.050781 328.820313 117.003906 C 335.835938 109.957031 337.484375 111.460938 345.25 102.960938 C 343.167969 103.257813 340.523438 105.082031 338.386719 106.125 L 331.277344 107.660156 C 331.539063 105.007813 335.726563 106.160156 344.285156 98.816406 C 340.976563 96.523438 329.644531 102.707031 318.746094 102.105469 C 316.839844 102.003906 311.324219 101.234375 310.300781 100.265625 C 308.566406 98.625 302.996094 81.941406 302.183594 77.945313 L 300.371094 69.214844 C 297.332031 70.222656 297.597656 70.21875 294.441406 69.195313 C 293.6875 70.726563 293.074219 70.992188 292.328125 73.328125 C 290.632813 78.648438 291.21875 85.421875 291.941406 90.777344 C 293.304688 100.84375 292.046875 103.558594 288.230469 111.21875 C 283.511719 120.695313 280.585938 140.800781 278.679688 151.785156 C 279.199219 149.859375 279.003906 147.65625 279.191406 145.714844 C 279.285156 144.726563 279.566406 144.269531 280.113281 143.445313 C 280.796875 145.0625 280.476563 147.386719 280.980469 149.476563 L 282.449219 154.9375 L 279.828125 154.96875 L 282.085938 158.324219 C 283.011719 157.898438 283.136719 157.527344 283.589844 156.605469 C 288.304688 159.753906 290.339844 153.417969 292.65625 150.117188 C 296.195313 145.070313 305.71875 135.519531 311.714844 133.8125 C 317.386719 132.195313 322.035156 132.53125 327.574219 134.238281 C 329.523438 134.839844 332.167969 135.808594 334.039063 136.628906 C 336.050781 137.511719 342.609375 142.671875 344.023438 144.335938 C 345.40625 145.960938 345.984375 148.125 346.949219 150.238281 C 350.507813 158.050781 345.855469 163.992188 341.148438 168.996094 C 325.300781 185.839844 292.285156 179.207031 283.71875 209.664063 C 281.886719 216.167969 283.53125 220.433594 283.128906 226.59375 C 282.40625 237.554688 287.894531 245.0625 284.949219 248.894531 C 284.476563 249.507813 282.546875 250.769531 280.339844 253.453125 C 278.527344 253.035156 276.265625 251.835938 273.46875 251.097656 C 270.9375 250.425781 269.261719 249.230469 267.316406 248 L 254.136719 242.753906 C 253.859375 243.414063 254.066406 242.871094 253.957031 243.71875 L 253.363281 247.089844 L 249.292969 246.382813 C 250.164063 251.789063 255.433594 253.5625 256.761719 259.015625 C 258.726563 267.078125 254.359375 267.261719 248.0625 269.015625 C 239.328125 271.449219 223.3125 268.40625 219.308594 259.773438 C 215.40625 251.355469 221.160156 235.296875 223.417969 226.6875 L 232.128906 195.566406 C 243.425781 193.605469 243.449219 195.472656 251.695313 200.859375 L 257.359375 203.992188 C 261.164063 193.765625 253.902344 187.339844 249.636719 182.585938 C 244.152344 176.472656 238.421875 173.953125 240.523438 160.691406 C 242.386719 148.925781 250.277344 122.835938 253.328125 109.488281 C 257.230469 92.398438 261.398438 75.226563 266.199219 58.242188 C 267.277344 54.425781 268.40625 49.601563 269.992188 46.136719 C 272.355469 40.976563 278.042969 46.15625 281.371094 43.394531 C 285.527344 39.941406 284.769531 37.484375 282.09375 32.589844 C 279.832031 28.449219 278.425781 26.09375 277.996094 20.480469 C 277.71875 16.863281 278.515625 -0.0117188 270.867188 4.121094 C 267.660156 5.851563 255.109375 35.203125 252.226563 41.636719 C 247.261719 52.742188 242.277344 63.636719 236.929688 74.511719 C 233.347656 81.792969 230.390625 89.066406 226.894531 96.292969 C 219.859375 110.835938 213.621094 125.710938 206.707031 140.167969 C 203.148438 147.605469 200.03125 154.902344 196.589844 162.304688 C 183.03125 191.460938 169.613281 220.363281 156.382813 249.808594 C 151.933594 259.710938 153.957031 266.3125 157.761719 275.351563 C 163.679688 289.421875 171.253906 305.320313 177.679688 319.496094 C 181.011719 326.84375 185.496094 333.492188 188.382813 341.066406 C 189.925781 345.117188 190.832031 348.910156 192.632813 352.730469 L 202.660156 374.523438 C 204.304688 378.246094 206.304688 381.785156 208.121094 385.40625 C 211.710938 392.542969 214.542969 400.226563 217.746094 407.609375 C 224.066406 422.195313 231.003906 437.207031 237.808594 451.601563 C 239.476563 455.128906 241.230469 458.996094 242.734375 462.589844 C 247.5 474.003906 252.550781 484.476563 257.613281 495.875 C 259.183594 499.402344 263.214844 509.1875 265.378906 511.964844 L 269.546875 515.679688 Z M 269.167969 512.035156 "/>
<path style=" stroke:none;fill-rule:evenodd;fill:rgb(0%,0%,0%);fill-opacity:1;" d="M 328.929688 415.808594 C 332.023438 416.976563 333.808594 414.539063 331.960938 423.597656 C 331.199219 427.351563 320.296875 443.726563 320.285156 443.757813 L 319.179688 449.3125 C 316.957031 450.496094 317.84375 447.804688 314.628906 453.125 C 309.316406 461.914063 309.042969 462.945313 304.445313 472.457031 L 306.390625 470.664063 C 311.925781 472.6875 313.078125 468.597656 317.207031 462.332031 C 322.847656 453.769531 328.601563 444.261719 334.433594 435.832031 C 340.164063 427.550781 338.398438 431.097656 341.539063 421.234375 C 339.5625 419.660156 337.347656 419.003906 335.050781 418.285156 C 335.175781 414.992188 334.320313 417.898438 332.871094 414.445313 C 332.152344 412.730469 331.714844 411.371094 331.769531 409.121094 C 331.9375 402.289063 328.476563 382.394531 326.277344 374.566406 C 324.757813 375.035156 325.367188 375.460938 323.886719 375.210938 L 325.40625 373.882813 C 324.746094 370.414063 324.808594 372.566406 323.019531 369.933594 C 320.128906 365.679688 319.601563 370.257813 319.125 371.023438 C 318.140625 372.609375 317.179688 372.09375 315.632813 372.839844 C 312.8125 374.199219 314.660156 377.691406 315.289063 379.890625 C 316.179688 382.992188 319.027344 393.46875 319.371094 396.125 C 319.558594 397.589844 320.785156 403.296875 321.257813 404.398438 C 322.175781 406.546875 324.605469 408.171875 326.601563 409.214844 C 331.660156 411.851563 328.789063 412.769531 328.929688 415.808594 Z M 328.929688 415.808594 "/>
<path style=" stroke:none;fill-rule:evenodd;fill:rgb(0%,0%,0%);fill-opacity:1;" d="M 291.402344 245.40625 C 291.527344 248.796875 289.503906 247.351563 293.628906 255.671875 C 293.859375 256.136719 294.585938 257.113281 295.015625 257.4375 C 298.492188 260.035156 297.300781 258.859375 300.320313 262.609375 C 305.210938 262.761719 304.542969 257.578125 304.589844 257.117188 L 304.710938 256.640625 C 310.816406 256.425781 308.910156 255.816406 312.695313 258.894531 C 313.75 254.707031 309.859375 254.089844 307.90625 253.351563 C 309.238281 250.148438 311.148438 252.785156 305.214844 244.5625 C 303.945313 242.804688 303.382813 242.394531 302.378906 240.328125 C 300.53125 236.519531 299.480469 236.003906 297.183594 230.933594 C 293.914063 223.722656 297.191406 225.007813 284.84375 221.839844 C 283.410156 227.984375 284.320313 229.835938 285.925781 235.140625 C 286.523438 237.097656 286.96875 239.519531 287.757813 241.253906 C 289.613281 245.335938 289.882813 244.929688 291.402344 245.40625 Z M 291.402344 245.40625 "/>
<path style=" stroke:none;fill-rule:evenodd;fill:rgb(0%,0%,0%);fill-opacity:1;" d="M 368.058594 284.320313 C 368.296875 289.128906 370.109375 287.574219 371.085938 289.964844 C 371.570313 291.164063 370.550781 290.675781 373.113281 291.976563 C 374.867188 292.867188 374.308594 292.992188 375.707031 293.832031 L 382.570313 295.734375 C 382.785156 295.78125 390.527344 296.273438 390.867188 296.273438 C 393.433594 296.273438 390.921875 295.230469 398.320313 295.140625 C 401.183594 295.105469 403.332031 294.203125 405.445313 293.390625 C 408.214844 292.328125 411.546875 289.640625 413.058594 287.738281 C 413.492188 287.191406 414.664063 285.726563 415.246094 285.078125 C 415.558594 284.730469 420.03125 280.414063 416.585938 281.917969 C 414.769531 282.707031 414.96875 283.441406 410.785156 285.023438 C 402.660156 288.085938 389.878906 292.195313 380.878906 289.949219 C 375.113281 288.507813 374.171875 287.832031 370.054688 285.363281 C 369.6875 285.144531 369.53125 285.054688 369.144531 284.851563 C 368.230469 284.371094 369.25 284.882813 368.058594 284.320313 Z M 368.058594 284.320313 "/>
<path style=" stroke:none;fill-rule:evenodd;fill:rgb(0%,0%,0%);fill-opacity:1;" d="M 255.417969 481.789063 C 256.378906 476.953125 256.523438 477.777344 253.871094 473.984375 C 251.917969 471.191406 249.835938 468.191406 249.816406 464.964844 C 249.792969 460.691406 249.28125 462.578125 247.839844 458.800781 C 245.921875 453.78125 247.773438 456 243.414063 452.214844 C 243.679688 448.65625 244.082031 450.105469 242.574219 446.835938 C 241.234375 443.929688 238.910156 436.46875 237.074219 434.667969 C 235.914063 433.53125 235.839844 434.503906 234.976563 432.796875 C 234.289063 431.441406 234.613281 428.957031 233.800781 426.890625 C 233.25 425.488281 232.320313 423.601563 231.574219 422.046875 C 230.0625 418.890625 230.96875 419.691406 228.289063 419.054688 C 226.386719 418.601563 227.480469 418.964844 226.460938 417.429688 L 224.832031 415.484375 C 224.84375 418.53125 235.4375 438.4375 237.582031 444.269531 C 238.070313 445.601563 238.898438 447.167969 239.578125 448.519531 L 252.910156 477.605469 C 253.746094 479.4375 253.964844 480.589844 255.417969 481.789063 Z M 255.417969 481.789063 "/>
<path style=" stroke:none;fill-rule:evenodd;fill:rgb(0%,0%,0%);fill-opacity:1;" d="M 232.496094 379.839844 L 228.988281 380.25 C 231.609375 384.570313 230.039063 383.421875 235.507813 384.84375 C 236.457031 383.890625 236.351563 382.523438 236.898438 381.144531 C 237.804688 378.851563 239.019531 371.25 239.542969 368.339844 L 241.210938 350.089844 L 237.347656 366.648438 C 236.390625 365.164063 237.125 365.015625 237.195313 362.726563 C 237.246094 361.03125 236.914063 359.078125 236.792969 357.355469 C 236.671875 355.703125 235.238281 350.085938 234.800781 348.394531 C 231.378906 349.925781 234.53125 352.539063 232.632813 356.550781 C 231.535156 358.871094 229.597656 361.792969 230.285156 363.644531 C 231.304688 366.394531 232.179688 364.355469 232.476563 371.609375 C 232.542969 373.253906 232.238281 373.652344 232.558594 375.5625 C 232.90625 377.628906 233.230469 377.84375 232.496094 379.839844 Z M 232.496094 379.839844 "/>
<path style=" stroke:none;fill-rule:evenodd;fill:rgb(0%,0%,0%);fill-opacity:1;" d="M 316.351563 620.566406 C 316.828125 617.605469 310.691406 605.632813 309.320313 602.820313 C 305.496094 594.976563 301.222656 585.308594 297.554688 577.015625 C 296.273438 574.121094 295.472656 570.582031 294.03125 567.726563 C 293.347656 566.367188 292.535156 565.039063 291.898438 563.667969 C 291.234375 562.242188 290.566406 560.191406 289.925781 559.011719 C 289.324219 557.898438 288.332031 555.929688 287.726563 555.039063 L 284.746094 551.234375 C 285.113281 557.195313 289.394531 564.371094 291.648438 569.667969 C 296.246094 580.457031 302.070313 594.242188 307.0625 604.625 C 308.914063 608.476563 313.160156 619.746094 316.351563 620.566406 Z M 316.351563 620.566406 "/>
<path style=" stroke:none;fill-rule:evenodd;fill:rgb(0%,0%,0%);fill-opacity:1;" d="M 400.652344 384.640625 L 405.011719 383.027344 C 404.898438 380.371094 404.019531 380.316406 402.304688 379.492188 C 406.101563 375.628906 399.929688 371.675781 402.578125 366.523438 C 404.292969 363.195313 405.394531 368.59375 406.136719 362.273438 L 407.75 355.628906 C 404.785156 353.707031 403.964844 353.847656 401.191406 353.648438 C 400.414063 355.851563 401.117188 354.585938 401.464844 355.949219 C 401.734375 357.019531 401.449219 362.957031 401.445313 364.542969 C 400.359375 363.976563 400.464844 364.929688 400.292969 362.839844 C 400.214844 361.9375 400.484375 360.648438 400.574219 359.597656 L 397.96875 355.554688 C 397.808594 355.105469 398.167969 354.257813 397.421875 352.417969 C 395.632813 352.949219 395.195313 353.042969 395.058594 355.164063 C 394.910156 357.441406 400 383.1875 400.652344 384.640625 Z M 400.652344 384.640625 "/>
<path style=" stroke:none;fill-rule:evenodd;fill:rgb(0%,0%,0%);fill-opacity:1;" d="M 329.90625 596.601563 L 328.207031 595.300781 C 328.125 598.554688 329.832031 595.824219 327.0625 601.679688 C 323.945313 608.269531 322.144531 613.878906 319.679688 620.730469 C 322.457031 619.53125 322.789063 617.960938 324.273438 615.222656 C 326.871094 610.425781 338.902344 584.191406 340.734375 579.554688 L 346.296875 563.488281 C 346.199219 563.578125 346.050781 563.578125 346.003906 563.757813 C 345.832031 564.390625 344.152344 565.714844 343.261719 566.621094 C 342.667969 567.222656 333.140625 588.542969 331.613281 592.109375 C 331.429688 592.539063 331.441406 592.640625 331.25 593.066406 C 330.421875 594.90625 330.296875 594.070313 329.90625 596.601563 Z M 329.90625 596.601563 "/>
<path style=" stroke:none;fill-rule:evenodd;fill:rgb(0%,0%,0%);fill-opacity:1;" d="M 249.367188 293.132813 L 252.523438 293.003906 L 253.042969 290.460938 C 237.945313 290.796875 229.140625 286.8125 217.089844 279.992188 C 217.777344 284.769531 221.390625 284.257813 223.25 286.3125 C 224.5625 287.765625 231.75 292.332031 234.875 293.277344 C 236.722656 293.839844 237.851563 293.863281 239.792969 294.507813 C 240.964844 294.894531 243.742188 295.472656 244.984375 295.640625 C 248.121094 296.066406 248.972656 295.917969 249.367188 293.132813 Z M 249.367188 293.132813 "/>
<path style=" stroke:none;fill-rule:evenodd;fill:rgb(0%,0%,0%);fill-opacity:1;" d="M 261.867188 276.710938 L 251.523438 279.5625 C 242.984375 281.886719 230.074219 275.066406 222.203125 271.917969 C 220.894531 273.777344 222.449219 275.015625 223.171875 276.699219 C 224.761719 280.414063 223.941406 278.683594 227.339844 280.027344 C 230.859375 281.417969 234.941406 282.796875 239.171875 282.625 C 240.667969 282.5625 240.550781 282.210938 242.261719 282.296875 C 247.292969 282.546875 245.523438 282.820313 251.753906 281.585938 C 255.417969 280.859375 260.3125 280.589844 261.867188 276.710938 Z M 261.867188 276.710938 "/>
<path style=" stroke:none;fill-rule:evenodd;fill:rgb(0%,0%,0%);fill-opacity:1;" d="M 288.523438 148.128906 C 290.472656 146.242188 288.617188 149.175781 293.726563 143.214844 C 306.015625 128.871094 318.167969 125.757813 335.839844 134.382813 C 340.40625 136.609375 341.972656 138.0625 346.257813 140.996094 C 344.273438 135.371094 342.710938 137.449219 338.628906 132.875 C 337.363281 131.457031 337.964844 132.105469 336.253906 131.355469 C 336.148438 131.308594 336.035156 131.253906 335.929688 131.207031 C 334.726563 130.679688 335.316406 130.839844 333.59375 130.382813 C 329.054688 129.175781 334.542969 129.050781 324.570313 128.027344 C 321.894531 127.753906 316.203125 127.03125 313.855469 127.570313 C 307.730469 128.96875 302.179688 132.378906 298.957031 135.65625 C 296.273438 138.386719 288.316406 144.738281 288.523438 148.128906 Z M 288.523438 148.128906 "/>
<path style=" stroke:none;fill-rule:evenodd;fill:rgb(0%,0%,0%);fill-opacity:1;" d="M 270.503906 331.324219 C 271.199219 332.441406 270.402344 331.546875 271.480469 332.203125 C 272.417969 332.769531 273.925781 333 275.40625 334.921875 C 277.4375 337.546875 275.90625 337.332031 279.691406 339.003906 C 283.59375 340.730469 287.546875 342.46875 290.8125 345.144531 L 307.070313 362.839844 C 307.394531 362.523438 308.578125 362.34375 307.101563 359.8125 C 300.128906 347.859375 286.414063 336.949219 273.742188 331.707031 C 270.550781 330.390625 271.09375 330.96875 270.503906 331.324219 Z M 270.503906 331.324219 "/>
<path style=" stroke:none;fill-rule:evenodd;fill:rgb(0%,0%,0%);fill-opacity:1;" d="M 308.265625 345.570313 C 308.242188 348.851563 310.367188 349.355469 312.203125 351.585938 C 318.390625 359.121094 319.070313 358.582031 326.171875 368.421875 L 321.992188 334.300781 L 319.503906 330.800781 C 318.484375 333.332031 321.226563 347.269531 321.566406 351.074219 C 321.851563 354.25 321.167969 353.355469 322.136719 355.328125 C 324.203125 359.535156 321.417969 361.335938 320.164063 357.339844 C 319.265625 354.464844 320.152344 355.972656 316.503906 353.023438 C 315.160156 351.933594 315.554688 352.050781 314.535156 351.015625 C 313.582031 350.050781 313.3125 350.1875 312.230469 349.351563 C 311.210938 348.5625 312.152344 349.316406 311.316406 348.492188 Z M 308.265625 345.570313 "/>
<path style=" stroke:none;fill-rule:evenodd;fill:rgb(0%,0%,0%);fill-opacity:1;" d="M 305.011719 315.496094 C 306.445313 316.230469 308.921875 317.6875 309.648438 319.265625 L 304.222656 321.726563 C 306.371094 323.6875 305.921875 324.1875 306.390625 326.152344 C 308.089844 325.582031 307.945313 325.0625 309.925781 322.367188 L 316.226563 328.171875 C 318.886719 325.835938 318.046875 325.175781 317.492188 321.179688 C 317.003906 317.671875 314.746094 317.507813 311.992188 318.195313 C 309.960938 312.84375 309.835938 314.734375 305.011719 315.496094 Z M 305.011719 315.496094 "/>
<path style=" stroke:none;fill-rule:evenodd;fill:rgb(0%,0%,0%);fill-opacity:1;" d="M 385.269531 102.179688 C 386.0625 98.707031 381.332031 83.699219 380.324219 79.296875 L 376.175781 62.253906 L 373.632813 57.496094 C 373.382813 58.226563 377.789063 77.304688 378.621094 79.6875 C 381.378906 87.585938 382.582031 99.878906 385.269531 102.179688 Z M 385.269531 102.179688 "/>
<path style=" stroke:none;fill-rule:evenodd;fill:rgb(0%,0%,0%);fill-opacity:1;" d="M 377.730469 279.488281 C 381.015625 279.964844 381.042969 280.722656 383.867188 281.726563 C 386.015625 282.492188 389.292969 282.808594 391.679688 282.796875 C 393.394531 282.789063 400.0625 282.953125 401.035156 281.628906 C 401.070313 281.585938 401.101563 281.453125 401.125 281.402344 C 401.152344 281.355469 401.167969 281.210938 401.191406 281.160156 C 401.613281 280.269531 400.695313 280.457031 405.058594 280.707031 C 404.527344 276.289063 402.660156 278.507813 399.839844 278.980469 C 398.558594 279.195313 397.050781 279.121094 395.746094 279.328125 C 391.417969 280.019531 392.238281 281.371094 384.96875 280.160156 C 383.421875 279.898438 382.511719 280.003906 381.105469 279.546875 C 380.644531 279.398438 379.8125 279.015625 379.464844 278.984375 C 377.8125 278.847656 378.683594 278.714844 377.730469 279.488281 Z M 377.730469 279.488281 "/>
<path style=" stroke:none;fill-rule:evenodd;fill:rgb(0%,0%,0%);fill-opacity:1;" d="M 269.003906 473.617188 C 269.003906 476.21875 268.984375 494.933594 269.625 496.269531 L 270.152344 497.171875 C 272.253906 495.84375 271.386719 492.710938 271.28125 489.089844 L 270.953125 475.382813 L 269.546875 470.464844 C 269.246094 471.324219 269.003906 472.425781 269.003906 473.617188 Z M 269.003906 473.617188 "/>
<path style=" stroke:none;fill-rule:evenodd;fill:rgb(0%,0%,0%);fill-opacity:1;" d="M 265.316406 503.910156 L 263.796875 497.648438 L 259.382813 486.152344 L 255.425781 482.015625 C 255.414063 484.921875 258.519531 490.644531 259.707031 493.34375 L 263.363281 501.605469 C 263.9375 502.746094 264.367188 503.402344 265.316406 503.910156 Z M 265.316406 503.910156 "/>
<path style=" stroke:none;fill-rule:evenodd;fill:rgb(0%,0%,0%);fill-opacity:1;" d="M 268.550781 454.613281 L 269.453125 467.503906 C 271.136719 466.691406 270.183594 467.902344 270.765625 465.789063 C 271.214844 464.152344 270.835938 449.800781 270.808594 447.785156 C 268.066406 447.734375 268.550781 451.921875 268.550781 454.613281 Z M 268.550781 454.613281 "/>
<path style=" stroke:none;fill-rule:evenodd;fill:rgb(0%,0%,0%);fill-opacity:1;" d="M 219.636719 403.796875 C 219.902344 404.90625 220.210938 404.527344 221.101563 407.308594 C 221.105469 407.304688 222.175781 405.273438 222.605469 406.648438 C 223.03125 408.003906 220.996094 406.464844 222.464844 410.332031 L 223.574219 408.910156 L 226.253906 410.570313 L 227.179688 409.152344 C 223.875 405.550781 223.539063 402.738281 222.804688 401.648438 L 220.496094 399.230469 C 221.253906 402.457031 221.125 401.859375 219.636719 403.796875 Z M 219.636719 403.796875 "/>
<path style=" stroke:none;fill-rule:evenodd;fill:rgb(0%,0%,0%);fill-opacity:1;" d="M 263.523438 289.800781 L 260.703125 288.730469 C 259.234375 290.421875 262.382813 291.269531 257.609375 292.25 C 256.628906 292.453125 256.019531 291.972656 255.816406 293.035156 L 257.339844 294.921875 L 266.121094 290.570313 C 266.882813 289.78125 266.984375 288.382813 266.835938 287.355469 C 266.6875 286.367188 267.539063 287.007813 266.421875 286.542969 C 264.816406 285.875 264.53125 288.808594 263.523438 289.800781 Z M 263.523438 289.800781 "/>
<path style=" stroke:none;fill-rule:evenodd;fill:rgb(0%,0%,0%);fill-opacity:1;" d="M 415.347656 400.769531 C 415.347656 400.769531 415.628906 402.101563 417.296875 400.761719 C 419.140625 399.285156 421.972656 388.171875 422.507813 386.203125 C 420.917969 386.957031 420.125 389.648438 418.488281 393.042969 C 417.664063 394.746094 415.308594 399.441406 415.347656 400.769531 Z M 415.347656 400.769531 "/>
<path style=" stroke:none;fill-rule:evenodd;fill:rgb(0%,0%,0%);fill-opacity:1;" d="M 321.464844 317.3125 C 321.859375 313.222656 321.308594 313.226563 320.042969 308.34375 L 315.160156 306.59375 C 315.640625 307.648438 316.035156 308.066406 316.605469 309.179688 L 318.15625 312.0625 C 318.902344 313.542969 319.191406 314.882813 320.226563 316.152344 L 320.660156 316.632813 C 321.164063 317.136719 320.957031 316.917969 321.464844 317.3125 Z M 321.464844 317.3125 "/>
<path style=" stroke:none;fill-rule:evenodd;fill:rgb(0%,0%,0%);fill-opacity:1;" d="M 270.152344 440.738281 C 271.128906 439.351563 270.90625 431.855469 270.152344 431.128906 C 267.292969 428.382813 268.398438 436.464844 268.371094 437.410156 C 268.308594 439.753906 268.339844 440.023438 270.152344 440.738281 Z M 270.152344 440.738281 "/>
<path style=" stroke:none;fill-rule:evenodd;fill:rgb(0%,0%,0%);fill-opacity:1;" d="M 349.78125 341.890625 C 351.28125 341.570313 353.917969 340.015625 355.808594 339.210938 C 356.488281 338.921875 363.296875 336.382813 359.820313 335.335938 C 359.269531 335.167969 359.238281 335.257813 358.695313 335.367188 C 356.523438 335.820313 353.453125 338.277344 351.925781 339.746094 C 351.359375 340.292969 351.324219 340.332031 350.847656 340.851563 C 349.898438 341.882813 351.265625 340.792969 349.78125 341.890625 Z M 349.78125 341.890625 "/>
<path style=" stroke:none;fill-rule:evenodd;fill:rgb(0%,0%,0%);fill-opacity:1;" d="M 325.800781 194.359375 C 326.648438 193.539063 326.679688 193.566406 328.183594 193.136719 C 331.46875 192.191406 333.757813 191.546875 335.738281 188.773438 C 331.90625 188.359375 326.089844 191.5625 325.800781 194.359375 Z M 325.800781 194.359375 "/>
<path style=" stroke:none;fill-rule:evenodd;fill:rgb(0%,0%,0%);fill-opacity:1;" d="M 253.1875 324.113281 C 253.972656 325.925781 253.65625 325.464844 255.46875 326.121094 C 256.488281 326.492188 257.238281 326.914063 258.386719 327.167969 C 261.414063 327.839844 261.292969 327.949219 264.207031 328.230469 C 261.777344 326 261.96875 327.761719 258.484375 324.890625 C 256.519531 323.269531 256.148438 323.742188 253.1875 324.113281 Z M 253.1875 324.113281 "/>
<path style=" stroke:none;fill-rule:evenodd;fill:rgb(0%,0%,0%);fill-opacity:1;" d="M 202.394531 359.445313 C 202.566406 356.835938 201.957031 359.082031 201.1875 356.109375 C 199.953125 351.34375 200.820313 353.03125 194.832031 347.917969 C 195.179688 349.160156 197.507813 351.964844 198.371094 353.601563 C 198.835938 354.480469 199.269531 356.019531 199.945313 356.890625 C 200.941406 358.164063 201.441406 358.019531 202.394531 359.445313 Z M 202.394531 359.445313 "/>
<path style=" stroke:none;fill-rule:evenodd;fill:rgb(0%,0%,0%);fill-opacity:1;" d="M 268.296875 39.761719 C 270.097656 40.335938 269.964844 39.296875 271.375 38.683594 L 275.339844 37.429688 C 274.867188 35.640625 273.070313 35.457031 271.089844 36.152344 C 269.273438 36.789063 267.695313 37.933594 268.296875 39.761719 Z M 268.296875 39.761719 "/>
<path style=" stroke:none;fill-rule:evenodd;fill:rgb(0%,0%,0%);fill-opacity:1;" d="M 408.449219 417.175781 C 411.28125 417.722656 411.703125 412.128906 412.257813 409.242188 C 411.480469 410.550781 411.65625 409.792969 410.933594 410.667969 C 410.496094 411.199219 408.113281 414.785156 408.066406 415.785156 C 407.9375 418.464844 407.894531 416.203125 408.449219 417.175781 Z M 408.449219 417.175781 "/>
<path style=" stroke:none;fill-rule:evenodd;fill:rgb(0%,0%,0%);fill-opacity:1;" d="M 216.515625 393.632813 C 216.773438 394.582031 217.058594 394.996094 217.792969 395.851563 L 217.128906 400.078125 L 218.453125 398.570313 L 220.488281 399.375 C 219.851563 396.917969 219.144531 395.230469 218.179688 393.453125 L 217.125 391.453125 C 216.289063 392.5625 216.535156 391.949219 216.515625 393.632813 Z M 216.515625 393.632813 "/>
<path style=" stroke:none;fill-rule:evenodd;fill:rgb(0%,0%,0%);fill-opacity:1;" d="M 199.449219 295.503906 C 199.632813 295.230469 200.464844 295.835938 199.660156 293.617188 C 197.726563 288.289063 200.371094 292.277344 197.242188 287.277344 C 195.316406 290.449219 197.355469 290.335938 198.09375 293.757813 C 198.457031 295.453125 198.179688 295.082031 199.449219 295.503906 Z M 199.449219 295.503906 "/>
<path style=" stroke:none;fill-rule:evenodd;fill:rgb(0%,0%,0%);fill-opacity:1;" d="M 428.390625 372.53125 C 430.992188 372.40625 430.492188 372.039063 431.910156 365.832031 C 431.160156 366.011719 430.902344 365.335938 429.605469 368.386719 C 428.953125 369.921875 428.472656 370.707031 428.390625 372.53125 Z M 428.390625 372.53125 "/>
<path style=" stroke:none;fill-rule:evenodd;fill:rgb(0%,0%,0%);fill-opacity:1;" d="M 407.117188 345.90625 L 408.027344 347.019531 C 409.691406 346.679688 410.523438 346.183594 410.8125 344.085938 C 408.757813 343.714844 407.832031 344.0625 407.117188 345.90625 Z M 407.117188 345.90625 "/>
<path style=" stroke:none;fill-rule:evenodd;fill:rgb(0%,0%,0%);fill-opacity:1;" d="M 304.710938 330.796875 L 306.988281 330.65625 C 307.347656 328.953125 307.304688 328.085938 305.894531 327.011719 C 304.921875 328.210938 304.574219 328.714844 304.710938 330.796875 Z M 304.710938 330.796875 "/>
<path style=" stroke:none;fill-rule:evenodd;fill:rgb(0%,0%,0%);fill-opacity:1;" d="M 196.160156 285.167969 C 196.335938 283.640625 195.886719 283.296875 195.460938 282.285156 C 194.523438 280.054688 195.597656 280.730469 193.441406 279.925781 C 193.191406 282.492188 194.628906 284.203125 196.160156 285.167969 Z M 196.160156 285.167969 "/>
<path style=" stroke:none;fill-rule:evenodd;fill:rgb(0%,0%,0%);fill-opacity:1;" d="M 302.355469 252.949219 L 302.578125 255.039063 C 304.550781 255.636719 305.144531 254.902344 304.777344 252.957031 C 303.871094 252.429688 303.398438 252.167969 302.355469 252.949219 Z M 302.355469 252.949219 "/>
<path style=" stroke:none;fill-rule:evenodd;fill:rgb(0%,0%,0%);fill-opacity:1;" d="M 343.316406 184.753906 L 346.570313 182.792969 L 344.835938 180.8125 Z M 343.316406 184.753906 "/>
<path style=" stroke:none;fill-rule:evenodd;fill:rgb(0%,0%,0%);fill-opacity:1;" d="M 404.464844 349.25 C 406.242188 350.511719 405.339844 349.984375 407.8125 350.902344 L 404.46875 346.71875 Z M 404.464844 349.25 "/>
<path style=" stroke:none;fill-rule:evenodd;fill:rgb(0%,0%,0%);fill-opacity:1;" d="M 348.8125 144.480469 C 349.304688 143.929688 349.417969 144.605469 349.394531 142.632813 C 348.84375 142.113281 349.855469 142.097656 347.226563 141.933594 C 347.367188 142.847656 347.445313 143.046875 348.078125 143.78125 C 348.792969 144.613281 348.316406 144.03125 348.8125 144.480469 Z M 348.8125 144.480469 "/>
<path style=" stroke:none;fill-rule:evenodd;fill:rgb(0%,0%,0%);fill-opacity:1;" d="M -114.335938 745.738281 C 9.128906 745.617188 733.148438 752.980469 745.414063 745.53125 C 688.8125 743.828125 -104.796875 739.796875 -114.335938 745.738281 Z M -114.335938 745.738281 "/>
<path style=" stroke:none;fill-rule:evenodd;fill:rgb(0%,0%,0%);fill-opacity:1;" d="M 57.433594 676.796875 C 59.507813 672.847656 58.035156 671.441406 64.941406 671.664063 L 71.628906 671.675781 C 71.730469 675.21875 71.695313 678.738281 71.679688 682.292969 L 71.660156 690.683594 C 71.667969 693.621094 71.964844 698.777344 71.628906 701.445313 L 65.359375 706.175781 C 67.472656 709.914063 82.039063 707.246094 86.101563 706.941406 C 84.910156 703.191406 81.222656 706.433594 79.9375 702.359375 C 78.59375 698.105469 79.296875 677.019531 79.332031 671.707031 C 82.390625 671.492188 91.359375 671.277344 94.101563 671.773438 C 97.121094 672.316406 96.875 676.226563 96.449219 678.871094 C 95.636719 683.96875 97.648438 703.117188 94.691406 705.101563 C 94.160156 705.460938 89.839844 706.824219 93.542969 707.585938 L 102.683594 707.535156 C 104.585938 707.578125 104.015625 707.839844 105.253906 706.152344 C 101.539063 704.597656 101.410156 705.464844 101.632813 699.265625 C 101.976563 689.742188 100.015625 687.304688 104.890625 685.738281 C 113.191406 683.066406 113.820313 695.925781 113.820313 701.523438 C 113.820313 704.210938 112.414063 705.191406 111.070313 707.132813 L 112.308594 707.582031 C 113.496094 707.832031 121.722656 707.234375 123.128906 707.132813 C 122.847656 705.128906 122.054688 706.117188 120.761719 705.101563 C 117.613281 702.632813 121.550781 685.6875 115.136719 682.695313 C 110.34375 680.457031 106.308594 681.546875 102.332031 684.082031 C 101.15625 682.109375 101.824219 677.296875 101.855469 675.078125 C 101.890625 672.664063 102.628906 666.539063 102.382813 665.910156 C 101.613281 663.960938 100.730469 665.792969 99.058594 666.179688 C 88.273438 668.691406 76.222656 667.269531 65.050781 667.632813 C 60.921875 667.765625 55.476563 667.390625 55.617188 673.476563 C 55.675781 675.882813 56.199219 674.824219 57.433594 676.796875 Z M 57.433594 676.796875 "/>
<path style=" stroke:none;fill-rule:evenodd;fill:rgb(0%,0%,0%);fill-opacity:1;" d="M 181.300781 688.273438 L 204.945313 688.59375 C 205.421875 689.292969 205.316406 689.273438 205.5 690.296875 C 205.917969 690.300781 205.128906 690.027344 206.1875 690.296875 C 205.929688 698.882813 206.035156 706.261719 206.089844 714.753906 L 210.035156 719.511719 C 209.246094 714.558594 210.621094 688.890625 209.992188 683.484375 C 209.867188 682.421875 209.898438 682.359375 209.320313 682.054688 C 203.621094 680.628906 187.855469 682.214844 179.46875 681.476563 C 180.699219 676.625 182.453125 669.953125 187.441406 667.613281 C 190.222656 666.304688 193.59375 667.027344 195.625 669.285156 L 198.265625 671.792969 C 198.261719 673.203125 198.101563 673.214844 198.640625 674.179688 C 199.636719 675.953125 200.4375 677.898438 201.742188 679.695313 C 203.640625 678.878906 207.835938 673.320313 209.425781 671.476563 C 211.808594 668.539063 210.734375 670.175781 212.679688 665.785156 C 212.332031 665.511719 213.507813 664.773438 211.058594 665.382813 C 210.703125 665.46875 208.328125 668.175781 207.800781 668.714844 C 205.140625 671.4375 208.636719 668.394531 204.082031 672.449219 C 204.058594 670.167969 201.160156 667.828125 199.71875 666.253906 C 192.671875 659.277344 173.300781 666.121094 172.027344 679.292969 C 170.058594 680.148438 171.238281 678.613281 171.035156 685.484375 C 170.949219 688.445313 171.152344 696.246094 173.238281 698.726563 L 174.519531 700.546875 C 179.976563 708.140625 189.914063 711.019531 197.941406 706.824219 C 198.023438 706.78125 198.257813 706.648438 198.351563 706.59375 C 199.515625 705.925781 199.777344 705.171875 200.828125 703.664063 C 199.445313 703.203125 198.25 704.148438 196.988281 704.652344 C 190.175781 707.363281 184.179688 702.148438 181.417969 696.234375 C 180.632813 694.546875 179.769531 692.144531 179.789063 690.195313 C 179.808594 688.621094 179.324219 689.039063 181.300781 688.273438 Z M 181.300781 688.273438 "/>
<path style=" stroke:none;fill-rule:evenodd;fill:rgb(0%,0%,0%);fill-opacity:1;" d="M 488.765625 685.46875 C 492.894531 680.375 494.367188 685.34375 496.910156 687.820313 C 497.308594 688.210938 496.714844 688.332031 498.671875 688.195313 C 499.070313 686.984375 498.925781 683.339844 497.714844 682.003906 C 496.839844 681.359375 489.105469 681.441406 488.023438 681.992188 C 473.859375 689.1875 496.847656 698.6875 495.324219 703.277344 C 493.292969 709.40625 487.160156 703.796875 484.632813 701.550781 C 484.292969 702.769531 484.300781 703.648438 483.542969 704.316406 L 483.1875 704.273438 C 482.539063 704.675781 482.574219 704.34375 483.21875 704.761719 C 482.65625 705.300781 482.542969 705.542969 481.140625 705.742188 C 479.4375 705.980469 477.609375 705.125 477.039063 704.042969 C 476.136719 702.316406 476.910156 669.296875 476.898438 665.71875 C 474.402344 664.464844 470.1875 667.328125 468.203125 669.136719 C 472.242188 671.125 471.359375 670.957031 471.476563 678.269531 L 471.308594 697.445313 C 470.550781 704.777344 468.03125 705.628906 462.597656 704.03125 C 461.019531 691.777344 462.46875 678.179688 462.691406 665.648438 C 461.6875 665.023438 455.449219 667.257813 453.683594 667.65625 L 453.625 669.699219 C 455.28125 668.933594 457.09375 671.429688 457.105469 671.453125 C 457.113281 675.6875 457.796875 702.808594 455.613281 704.863281 C 454.074219 706.308594 455.542969 703.808594 452.386719 707.472656 C 458.320313 707.851563 492.53125 708.371094 493.128906 708.046875 C 494.691406 707.46875 495.941406 707.257813 497.246094 707.226563 C 503.140625 707.089844 501.339844 698.425781 498.359375 695.515625 C 494.246094 692.714844 487.660156 690.628906 488.765625 685.46875 Z M 494.117188 700.378906 C 493.898438 700.601563 494.582031 699.902344 494.117188 700.378906 Z M 494.117188 700.378906 "/>
<path style=" stroke:none;fill-rule:evenodd;fill:rgb(0%,0%,0%);fill-opacity:1;" d="M 256.867188 674.773438 C 257.125 676.734375 256.800781 678.292969 256.632813 680.207031 C 256.421875 682.640625 249.230469 682.015625 247.320313 681.941406 C 242.574219 681.75 237.640625 689.804688 237 693.570313 C 234.632813 707.453125 245.394531 709.980469 256.832031 704.902344 L 256.769531 708.226563 C 258.714844 708.929688 264.175781 707.347656 266.382813 706.886719 L 267.019531 704.398438 L 262.300781 704.429688 C 261.96875 697.066406 261.960938 683.105469 262.101563 675.0625 C 262.171875 670.917969 262.609375 668.410156 262.460938 665.230469 C 260.113281 665.285156 254.636719 666.710938 252.835938 668.246094 C 256.734375 671.84375 256.101563 669.03125 256.867188 674.773438 Z M 256.867188 674.773438 "/>
<path style=" stroke:none;fill-rule:evenodd;fill:rgb(0%,0%,0%);fill-opacity:1;" d="M 341.65625 682.671875 C 345.917969 686.855469 353.566406 687.949219 358.378906 691.597656 C 359.300781 692.445313 360.070313 692.960938 360.628906 694.101563 C 362.570313 698.070313 360.511719 700.355469 358.101563 703.074219 C 353.289063 708.769531 348.03125 705.070313 344.914063 700.636719 C 343.210938 698.210938 342.199219 695.703125 343.976563 693.007813 C 344.96875 691.507813 345.949219 690.953125 346.296875 689.269531 C 344.972656 688.511719 343.730469 688.9375 342.167969 689.269531 C 341.085938 692.289063 332.359375 703.96875 329.730469 707.152344 C 328.613281 708.476563 329 709.332031 329.210938 710.898438 C 331.039063 711.707031 331.917969 710.515625 332.785156 709.585938 C 333.226563 709.316406 336.925781 703.484375 337.953125 702.046875 C 344.820313 710.902344 358.082031 710.898438 365.6875 703.105469 C 371.035156 697.625 369.835938 689.226563 361.972656 685.128906 C 357.589844 682.84375 352.347656 681.800781 350 680.65625 C 348.273438 679.816406 349.855469 680.265625 347.097656 679.210938 L 345.949219 678.707031 C 345.335938 677.8125 344.089844 677.96875 343.835938 675.328125 C 343.136719 668.085938 352.652344 663.675781 356.191406 669.597656 C 357.972656 672.566406 359.183594 675.738281 360.875 678.40625 C 362.601563 677.957031 361.648438 678.3125 362.449219 677.410156 C 365.246094 674.253906 367.222656 669.195313 368.894531 665.378906 C 366.761719 664.886719 365.300781 667.875 363.46875 670.433594 C 360.027344 661.082031 349.511719 660.195313 342.128906 666.355469 C 337.191406 671.433594 336.242188 677.355469 341.65625 682.671875 Z M 341.65625 682.671875 "/>
<path style=" stroke:none;fill-rule:evenodd;fill:rgb(0%,0%,0%);fill-opacity:1;" d="M 552.320313 697.273438 C 547.183594 685.480469 542.667969 676.363281 538.714844 663.988281 C 535.808594 663.792969 531.457031 665.480469 528.382813 666.222656 L 527.640625 668.648438 C 530.125 670.652344 532.058594 667.695313 534.574219 673.742188 C 537.347656 680.351563 549.066406 707.761719 550.074219 708.960938 C 552.59375 708.796875 552.082031 708.289063 554.011719 703.363281 C 557.015625 695.835938 568.542969 671.800781 569.773438 665.828125 C 570.109375 662.382813 566.421875 663.289063 563.625 663.390625 C 565.480469 666.703125 554.484375 691.984375 552.320313 697.273438 Z M 552.320313 697.273438 "/>
<path style=" stroke:none;fill-rule:evenodd;fill:rgb(0%,0%,0%);fill-opacity:1;" d="M 280.707031 708.675781 C 281.433594 708.425781 281.355469 707.953125 283.253906 707.648438 C 287.609375 706.949219 286.898438 706.53125 290.804688 700.660156 C 288.027344 701.011719 288.542969 702.757813 286.632813 703.066406 C 279.28125 703.332031 277.921875 702.75 274.582031 695.796875 C 276.230469 694.625 287.246094 691.644531 290.546875 690.136719 C 291.59375 685.058594 287.75 681.886719 282.742188 681.667969 C 265.09375 680.898438 265.105469 708.429688 280.707031 708.675781 Z M 280.707031 708.675781 "/>
<path style=" stroke:none;fill-rule:evenodd;fill:rgb(0%,0%,0%);fill-opacity:1;" d="M 138.003906 681.65625 C 131.921875 681.65625 127.78125 684.996094 125.828125 690.5625 C 124.691406 693.804688 124.394531 696.066406 125.589844 699.421875 C 129.464844 710.28125 140.441406 711.71875 146.863281 700.84375 C 143.953125 700.679688 145.820313 702.257813 142.398438 703.113281 C 138.046875 704.199219 135.703125 703.125 132.761719 700.363281 C 131.46875 699.152344 131.296875 697.800781 130.652344 695.765625 C 132.523438 694.710938 137.722656 693.59375 140.558594 692.449219 C 152.546875 687.601563 145.542969 681.65625 138.003906 681.65625 Z M 138.003906 681.65625 "/>
<path style=" stroke:none;fill-rule:evenodd;fill:rgb(0%,0%,0%);fill-opacity:1;" d="M 220.058594 668.566406 L 223.132813 671.054688 C 223.089844 677.191406 223.488281 697.449219 222.878906 701.535156 C 222.355469 705.027344 222.109375 704.566406 218.550781 707.253906 C 219.320313 707.546875 227.023438 707.625 229.257813 707.65625 C 231.589844 707.695313 231.523438 707.777344 232.894531 706.734375 C 231.90625 704.09375 231.363281 706.273438 229.25 704.105469 C 227.957031 702.78125 228.957031 703.699219 228.703125 699.828125 L 228.941406 665.105469 C 227.074219 665.277344 221.5 667.027344 220.058594 668.566406 Z M 220.058594 668.566406 "/>
<path style=" stroke:none;fill-rule:evenodd;fill:rgb(0%,0%,0%);fill-opacity:1;" d="M 427.410156 693.503906 C 427.410156 698.03125 428.226563 698.996094 429.746094 701.238281 L 431.171875 702.960938 C 432.410156 704.25 434.164063 706.550781 437.179688 705.648438 C 437.824219 705.453125 437.777344 705.371094 437.960938 705.242188 C 438.007813 705.210938 439.105469 704.148438 439.195313 704.066406 L 441.371094 701.890625 C 442.597656 700.195313 441.042969 702.648438 441.675781 701.4375 C 442.167969 700.484375 442.835938 697.796875 442.925781 696.710938 C 443.164063 693.722656 442.660156 690.585938 441.289063 688.8125 C 441.238281 688.746094 441.148438 688.667969 441.097656 688.601563 C 441.046875 688.53125 440.96875 688.445313 440.917969 688.375 C 440.871094 688.300781 440.804688 688.203125 440.761719 688.128906 C 440.425781 687.554688 440.007813 685.226563 436.476563 684.101563 C 430.625 682.234375 427.410156 689.769531 427.410156 693.503906 Z M 427.410156 693.503906 "/>
<path style=" stroke:none;fill-rule:evenodd;fill:rgb(0%,0%,0%);fill-opacity:1;" d="M 254.351563 704 C 257.738281 702.679688 257.441406 689.285156 256.136719 687.554688 C 248.902344 677.953125 239.425781 689.539063 243.65625 698.054688 C 245.71875 702.210938 248.949219 706.105469 254.351563 704 Z M 254.351563 704 "/>
<path style=" stroke:none;fill-rule:evenodd;fill:rgb(0%,0%,0%);fill-opacity:1;" d="M 376.183594 703.839844 C 380.886719 709.855469 390.464844 708.15625 392.617188 706.023438 L 395.625 701.683594 C 394.96875 701.585938 393.210938 701.507813 393.179688 701.515625 C 393.011719 701.5625 391.90625 702.753906 391.253906 703.074219 C 383.152344 707.039063 375.269531 694.90625 381.429688 686.78125 C 385.484375 681.429688 389.355469 686.375 393.34375 688.539063 C 394.054688 688.230469 395.765625 686.40625 396.332031 685.886719 C 396.066406 684.183594 394.425781 683.214844 393.746094 681.679688 C 390.214844 682.128906 383.148438 680.851563 378.601563 685.160156 C 372.984375 690.472656 371.296875 697.59375 376.183594 703.839844 Z M 376.183594 703.839844 "/>
<path style=" stroke:none;fill-rule:evenodd;fill:rgb(0%,0%,0%);fill-opacity:1;" d="M 296.988281 685.222656 C 299.152344 686.738281 299.886719 686.214844 300.03125 690.050781 L 299.636719 703.453125 C 299.195313 706.171875 298.03125 704.210938 295.660156 707.132813 L 309.777344 707.367188 C 308.921875 704.308594 305.945313 707.078125 305.476563 702.53125 C 305.226563 700.128906 303.742188 687.945313 306.488281 687.269531 C 308.722656 686.722656 314.074219 690.070313 315.675781 685.550781 C 316.578125 682.992188 314.039063 679.023438 304.929688 686.117188 L 304.21875 681.582031 C 302.203125 681.257813 297.597656 683.234375 296.988281 685.222656 Z M 296.988281 685.222656 "/>
<path style=" stroke:none;fill-rule:evenodd;fill:rgb(0%,0%,0%);fill-opacity:1;" d="M 274.414063 692.617188 C 277.570313 691.726563 286.921875 688.460938 284.609375 685.21875 C 280.902344 680.019531 273.28125 688.347656 274.414063 692.617188 Z M 274.414063 692.617188 "/>
<path style=" stroke:none;fill-rule:evenodd;fill:rgb(0%,0%,0%);fill-opacity:1;" d="M 130.863281 692.601563 C 133.394531 691.566406 136.492188 689.78125 138.953125 688.957031 C 140.960938 688.289063 141.757813 687.703125 140.925781 685.773438 C 138.3125 679.695313 127.972656 689.039063 130.863281 692.601563 Z M 130.863281 692.601563 "/>
<path style=" stroke:none;fill-rule:evenodd;fill:rgb(0%,0%,0%);fill-opacity:1;" d="M 441.007813 707.484375 L 441.179688 707.34375 C 441.175781 707.34375 441.132813 707.382813 441.128906 707.386719 C 441.121094 707.390625 440.96875 707.449219 441.007813 707.484375 Z M 424.734375 704.023438 C 424.507813 704.160156 425.398438 703.625 424.734375 704.023438 Z M 424.734375 704.023438 "/>
<path style=" stroke:none;fill-rule:evenodd;fill:rgb(0%,0%,0%);fill-opacity:1;" d="M 401.300781 685.304688 C 403.464844 686.816406 404.195313 686.296875 404.339844 690.132813 L 403.949219 703.535156 C 403.503906 706.25 402.34375 704.289063 399.96875 707.214844 L 414.089844 707.449219 C 413.230469 704.390625 410.253906 707.160156 409.785156 702.613281 C 409.539063 700.210938 408.054688 688.023438 410.800781 687.351563 C 413.035156 686.804688 418.386719 690.148438 419.984375 685.632813 C 420.890625 683.074219 418.351563 679.101563 409.238281 686.195313 L 408.527344 681.660156 C 406.511719 681.339844 401.90625 683.316406 401.300781 685.304688 Z M 401.300781 685.304688 "/>
<path style=" stroke:none;fill-rule:evenodd;fill:rgb(0%,0%,0%);fill-opacity:1;" d="M 435.207031 681.722656 C 444.460938 682.375 448.730469 686.445313 448.625 694.902344 C 448.535156 702.179688 442.617188 708.082031 435.207031 708.082031 C 427.796875 708.082031 421.789063 702.179688 421.789063 694.902344 C 421.789063 687.621094 427.816406 681.199219 435.207031 681.722656 Z M 435.207031 681.722656 "/>
<path style=" stroke:none;fill-rule:evenodd;fill:rgb(100%,100%,100%);fill-opacity:1;" d="M 435.195313 705.753906 C 430.855469 705.753906 427.339844 700.863281 427.339844 694.828125 C 427.339844 688.796875 430.875 683.507813 435.195313 683.90625 C 446.242188 684.925781 443.851563 689.773438 443.054688 694.828125 C 442.113281 700.789063 439.535156 705.753906 435.195313 705.753906 Z M 435.195313 705.753906 "/>
</g>
</svg>
